<!DOCTYPE svg PUBLIC '-//W3C//DTD SVG 1.1//EN' 'http://www.w3.org/Graphics/SVG/1.1/DTD/svg11.dtd'>
                <svg xmlns="http://www.w3.org/2000/svg" version="1.1" viewBox="0 0 180 100" preserveAspectRatio="none" xmlns:xlink="http://www.w3.org/1999/xlink">
                    <a href="https://www.bloomberg.com/quote/CL1:COM" target="_top"><rect height="100" width="180" fill="transparent"></rect><defs><mask id="up-mask"><rect id="clipper" x="90" y="0" width="90" height="25.735294117647694" stroke-width="0" fill="#FFFFFF"></rect></mask><mask id="down-mask"><rect id="clipper" x="90" y="25.735294117647694" width="90" height="100" stroke-width="0" fill="#FFFFFF"></rect></mask><path id="day-0" stroke-linejoin="round" stroke="currentColor" stroke-width="4" fill="none" d="M0 69.85294117647084 L0 69.85294117647084 L0.32727272727272727 64.70588235294191 L0.6545454545454545 66.91176470588317 L0.9818181818181818 67.64705882352956 L1.309090909090909 69.11764705882445 L1.6363636363636362 70.58823529411826 L1.9636363636363636 69.85294117647084 L2.290909090909091 72.05882352941208 L2.618181818181818 71.32352941176465 L2.9454545454545453 72.79411764705952 L3.2727272727272725 73.52941176470591 L3.6 71.32352941176465 L3.9272727272727272 68.382352941177 L4.254545454545455 68.382352941177 L4.581818181818182 69.85294117647084 L4.909090909090909 69.85294117647084 L5.236363636363636 69.11764705882445 L5.5636363636363635 68.382352941177 L5.890909090909091 68.382352941177 L6.218181818181818 66.91176470588317 L6.545454545454545 66.91176470588317 L6.872727272727273 69.11764705882445 L7.2 68.382352941177 L7.527272727272727 66.91176470588317 L7.8545454545454545 60.294117647059394 L8.181818181818182 63.235294117647044 L8.50909090909091 64.70588235294191 L8.836363636363636 66.17647058823573 L9.163636363636364 63.97058823529448 L9.49090909090909 63.235294117647044 L9.818181818181818 68.382352941177 L10.145454545454545 67.64705882352956 L10.472727272727273 68.382352941177 L10.8 68.382352941177 L11.127272727272727 66.91176470588317 L11.454545454545455 67.64705882352956 L11.781818181818181 72.05882352941208 L12.10909090909091 66.91176470588317 L12.436363636363636 66.17647058823573 L12.763636363636364 62.500000000000654 L13.09090909090909 60.294117647059394 L13.418181818181818 59.55882352941195 L13.745454545454546 59.55882352941195 L14.072727272727272 61.02941176470683 L14.4 61.76470588235322 L14.727272727272727 63.235294117647044 L15.054545454545455 61.02941176470683 L15.381818181818181 56.6176470588243 L15.709090909090909 61.02941176470683 L16.036363636363635 63.235294117647044 L16.363636363636363 63.235294117647044 L16.69090909090909 63.97058823529448 L17.01818181818182 63.97058823529448 L17.345454545454544 63.235294117647044 L17.672727272727272 63.97058823529448 L18 63.235294117647044 L18.327272727272728 61.76470588235322 L18.654545454545456 61.02941176470683 L18.98181818181818 61.02941176470683 L19.30909090909091 60.294117647059394 L19.636363636363637 60.294117647059394 L19.963636363636365 61.02941176470683 L20.29090909090909 63.235294117647044 L20.618181818181817 64.70588235294191 L20.945454545454545 68.382352941177 L21.272727272727273 65.4411764705883 L21.6 65.4411764705883 L21.927272727272726 66.17647058823573 L22.254545454545454 68.382352941177 L22.581818181818182 67.64705882352956 L22.90909090909091 67.64705882352956 L23.236363636363635 67.64705882352956 L23.563636363636363 67.64705882352956 L23.89090909090909 68.382352941177 L24.21818181818182 67.64705882352956 L24.545454545454547 67.64705882352956 L24.87272727272727 66.17647058823573 L25.2 66.91176470588317 L25.527272727272727 70.58823529411826 L25.854545454545455 70.58823529411826 L26.18181818181818 70.58823529411826 L26.509090909090908 69.85294117647084 L26.836363636363636 69.11764705882445 L27.163636363636364 69.11764705882445 L27.490909090909092 69.85294117647084 L27.818181818181817 69.11764705882445 L28.145454545454545 68.382352941177 L28.472727272727273 66.91176470588317 L28.8 67.64705882352956 L29.12727272727273 66.17647058823573 L29.454545454545453 63.97058823529448 L29.78181818181818 61.02941176470683 L30.10909090909091 63.235294117647044 L30.436363636363637 62.500000000000654 L30.763636363636362 61.76470588235322 L31.09090909090909 63.97058823529448 L31.418181818181818 67.64705882352956 L31.745454545454546 66.17647058823573 L32.07272727272727 66.17647058823573 L32.4 63.97058823529448 L32.72727272727273 62.500000000000654 L33.054545454545455 62.500000000000654 L33.38181818181818 67.64705882352956 L33.70909090909091 59.55882352941195 L34.03636363636364 61.02941176470683 L34.36363636363637 60.294117647059394 L34.69090909090909 57.352941176470694 L35.018181818181816 58.82352941176556 L35.345454545454544 57.352941176470694 L35.67272727272727 57.352941176470694 L36 55.88235294117687 L36.32727272727273 57.352941176470694 L36.654545454545456 58.08823529411813 L36.981818181818184 59.55882352941195 L37.30909090909091 63.97058823529448 L37.63636363636363 65.4411764705883 L37.96363636363636 65.4411764705883 L38.29090909090909 70.58823529411826 L38.61818181818182 73.52941176470591 L38.945454545454545 82.35294117647096 L39.27272727272727 75.73529411764717 L39.6 80.14705882352969 L39.92727272727273 78.67647058823587 L40.25454545454546 80.88235294117713 L40.58181818181818 81.61764705882352 L40.90909090909091 82.35294117647096 L41.236363636363635 75.00000000000078 L41.56363636363636 77.20588235294204 L41.89090909090909 77.20588235294204 L42.21818181818182 79.4117647058833 L42.54545454545455 81.61764705882352 L42.872727272727275 83.82352941176478 L43.2 80.88235294117713 L43.527272727272724 77.94117647058843 L43.85454545454545 76.47058823529461 L44.18181818181818 77.94117647058843 L44.50909090909091 74.26470588235334 L44.836363636363636 73.52941176470591 L45.163636363636364 72.79411764705952 L45.49090909090909 72.05882352941208 L45.81818181818182 74.26470588235334 L46.14545454545455 80.14705882352969 L46.47272727272727 79.4117647058833 L46.8 78.67647058823587 L47.127272727272725 74.26470588235334 L47.45454545454545 79.4117647058833 L47.78181818181818 76.47058823529461 L48.10909090909091 75.00000000000078 L48.43636363636364 72.79411764705952 L48.763636363636365 76.47058823529461 L49.09090909090909 74.26470588235334 L49.418181818181814 72.79411764705952 L49.74545454545454 94.85294117647108 L50.07272727272727 91.176470588236 L50.4 89.70588235294113 L50.72727272727273 90.44117647058857 L51.054545454545455 91.91176470588239 L51.38181818181818 93.38235294117726 L51.70909090909091 90.44117647058857 L52.03636363636364 88.2352941176473 L52.36363636363636 90.44117647058857 L52.69090909090909 91.91176470588239 L53.018181818181816 83.82352941176478 L53.345454545454544 88.2352941176473 L53.67272727272727 88.2352941176473 L54 85.29411764705965 L54.32727272727273 83.82352941176478 L54.654545454545456 84.55882352941222 L54.981818181818184 83.08823529411839 L55.30909090909091 78.67647058823587 L55.63636363636363 76.47058823529461 L55.96363636363636 77.94117647058843 L56.29090909090909 77.94117647058843 L56.61818181818182 77.20588235294204 L56.945454545454545 72.05882352941208 L57.27272727272727 78.67647058823587 L57.6 75.00000000000078 L57.92727272727273 73.52941176470591 L58.25454545454546 71.32352941176465 L58.58181818181818 69.11764705882445 L58.90909090909091 72.05882352941208 L59.236363636363635 64.70588235294191 L59.56363636363636 65.4411764705883 L59.89090909090909 63.97058823529448 L60.21818181818182 65.4411764705883 L60.54545454545455 65.4411764705883 L60.872727272727275 69.85294117647084 L61.2 69.11764705882445 L61.527272727272724 64.70588235294191 L61.85454545454545 64.70588235294191 L62.18181818181818 68.382352941177 L62.50909090909091 64.70588235294191 L62.836363636363636 66.91176470588317 L63.163636363636364 68.382352941177 L63.49090909090909 72.05882352941208 L63.81818181818182 75.73529411764717 L64.14545454545454 72.79411764705952 L64.47272727272727 56.6176470588243 L64.8 26.470588235294084 L65.12727272727273 30.14705882353022 L65.45454545454545 38.970588235294215 L65.78181818181818 63.235294117647044 L66.10909090909091 100 L66.43636363636364 90.44117647058857 L66.76363636363637 71.32352941176465 L67.0909090909091 71.32352941176465 L67.41818181818182 77.94117647058843 L67.74545454545455 74.26470588235334 L68.07272727272728 50.73529411764795 L68.4 39.70588235294165 L68.72727272727273 36.029411764706566 L69.05454545454545 48.5294117647067 L69.38181818181818 35.29411764705913 L69.7090909090909 28.676470588235347 L70.03636363636363 27.941176470588957 L70.36363636363636 0 L70.69090909090909 10.29411764705887 L71.01818181818182 9.558823529412479 L71.34545454545454 8.823529411765044 L71.67272727272727 11.76470588235374 L72 13.970588235295 L72.32727272727273 5.1470588235299575 L72.65454545454546 10.29411764705887 L72.98181818181818 6.617647058823783 L73.30909090909091 2.205882352941261 L73.63636363636364 8.08823529411761 L73.96363636363637 11.029411764706305 L74.2909090909091 9.558823529412479 L74.61818181818182 13.970588235295 L74.94545454545454 12.50000000000013 L75.27272727272727 12.50000000000013 L75.6 11.76470588235374 L75.92727272727272 11.029411764706305 L76.25454545454545 14.70588235294139 L76.58181818181818 16.911764705882653 L76.9090909090909 11.029411764706305 L77.23636363636363 13.235294117647566 L77.56363636363636 14.70588235294139 L77.89090909090909 29.41176470588278 L78.21818181818182 25.00000000000026 L78.54545454545455 26.470588235294084 L78.87272727272727 13.235294117647566 L79.2 17.647058823530088 L79.52727272727273 22.05882352941261 L79.85454545454546 26.470588235294084 L80.18181818181819 28.676470588235347 L80.50909090909092 28.676470588235347 L80.83636363636363 27.205882352941522 L81.16363636363636 27.941176470588957 L81.49090909090908 28.676470588235347 L81.81818181818181 30.14705882353022 L82.14545454545454 30.88235294117661 L82.47272727272727 30.14705882353022 L82.8 30.88235294117661 L83.12727272727273 30.14705882353022 L83.45454545454545 30.14705882353022 L83.78181818181818 30.14705882353022 L84.10909090909091 27.941176470588957 L84.43636363636364 27.205882352941522 L84.76363636363637 22.05882352941261 L85.0909090909091 20.58823529411774 L85.41818181818182 20.58823529411774 L85.74545454545455 16.17647058823522 L86.07272727272728 19.117647058823913 L86.4 16.911764705882653 L86.72727272727273 18.382352941176478 L87.05454545454545 23.529411764706435 L87.38181818181818 24.26470588235387 L87.7090909090909 23.529411764706435 L88.03636363636363 20.58823529411774 L88.36363636363636 23.529411764706435 L88.69090909090909 26.470588235294084 L89.01818181818182 25.735294117647694 L89.34545454545454 27.205882352941522 L89.67272727272727 25.00000000000026 L90 28.676470588235347"/><path id="day-1" stroke-linejoin="round" stroke="currentColor" stroke-width="4" fill="none" d="M90 11.76470588235374 L90 11.76470588235374 L90.32727272727273 13.970588235295 L90.65454545454546 13.970588235295 L90.98181818181818 16.17647058823522 L91.30909090909091 18.382352941176478 L91.63636363636364 16.17647058823522 L91.96363636363637 19.117647058823913 L92.2909090909091 16.17647058823522 L92.61818181818182 19.117647058823913 L92.94545454545454 18.382352941176478 L93.27272727272727 19.117647058823913 L93.6 19.852941176471347 L93.92727272727272 23.529411764706435 L94.25454545454545 22.05882352941261 L94.58181818181818 20.58823529411774 L94.9090909090909 21.323529411765175 L95.23636363636363 22.05882352941261 L95.56363636363636 22.05882352941261 L95.89090909090909 20.58823529411774 L96.21818181818182 17.647058823530088 L96.54545454545455 15.441176470588827 L96.87272727272727 15.441176470588827 L97.2 17.647058823530088 L97.52727272727273 16.17647058823522 L97.85454545454546 6.617647058823783 L98.18181818181819 8.823529411765044 L98.50909090909092 7.3529411764712185 L98.83636363636364 8.823529411765044 L99.16363636363636 10.29411764705887 L99.49090909090908 8.823529411765044 L99.81818181818181 8.08823529411761 L100.14545454545454 8.823529411765044 L100.47272727272727 12.50000000000013 L100.8 10.29411764705887 L101.12727272727273 8.823529411765044 L101.45454545454545 6.617647058823783 L101.78181818181818 8.08823529411761 L102.10909090909091 10.29411764705887 L102.43636363636364 13.235294117647566 L102.76363636363637 7.3529411764712185 L103.0909090909091 5.1470588235299575 L103.41818181818182 5.882352941177393 L103.74545454545455 8.823529411765044 L104.07272727272728 11.76470588235374 L104.4 15.441176470588827 L104.72727272727272 11.76470588235374 L105.05454545454546 13.235294117647566 L105.38181818181818 13.235294117647566 L105.7090909090909 13.970588235295 L106.03636363636363 13.970588235295 L106.36363636363636 15.441176470588827 L106.69090909090909 16.911764705882653 L107.01818181818182 20.58823529411774 L107.34545454545454 18.382352941176478 L107.67272727272727 21.323529411765175 L108 19.852941176471347 L108.32727272727273 19.117647058823913 L108.65454545454546 22.794117647059 L108.98181818181818 22.794117647059 L109.30909090909091 19.852941176471347 L109.63636363636364 20.58823529411774 L109.96363636363637 19.117647058823913 L110.29090909090908 18.382352941176478 L110.61818181818182 19.117647058823913 L110.94545454545454 21.323529411765175 L111.27272727272728 22.794117647059 L111.6 22.05882352941261 L111.92727272727272 22.05882352941261 L112.25454545454545 20.58823529411774 L112.58181818181818 19.117647058823913 L112.9090909090909 20.58823529411774 L113.23636363636363 20.58823529411774 L113.56363636363636 23.529411764706435 L113.89090909090909 25.00000000000026 L114.21818181818182 23.529411764706435 L114.54545454545455 20.58823529411774 L114.87272727272727 21.323529411765175 L115.2 20.58823529411774 L115.52727272727273 22.05882352941261 L115.85454545454546 19.852941176471347 L116.18181818181819 20.58823529411774 L116.5090909090909 19.852941176471347 L116.83636363636364 19.852941176471347 L117.16363636363636 16.911764705882653 L117.4909090909091 20.58823529411774 L117.81818181818181 20.58823529411774 L118.14545454545454 21.323529411765175 L118.47272727272727 21.323529411765175 L118.8 22.05882352941261"/></defs><use xlink:href="#day-0" style="color: #CCCCCC" transform="translate(0, 0)"/><use xlink:href="#day-1" style="color: #FF433D" mask="url(#down-mask)" transform="translate(0, 0)"/><use xlink:href="#day-1" style="color: #1DCC92" mask="url(#up-mask)" transform="translate(0, 0)"/></a>
                </svg>