<!DOCTYPE svg PUBLIC '-//W3C//DTD SVG 1.1//EN' 'http://www.w3.org/Graphics/SVG/1.1/DTD/svg11.dtd'>
                <svg xmlns="http://www.w3.org/2000/svg" version="1.1" viewBox="0 0 180 100" preserveAspectRatio="none" xmlns:xlink="http://www.w3.org/1999/xlink">
                    <a href="https://www.bloomberg.com/quote/DM1:IND" target="_top"><rect height="100" width="180" fill="transparent"></rect><defs><mask id="up-mask"><rect id="clipper" x="90" y="0" width="90" height="13.46704871060172" stroke-width="0" fill="#FFFFFF"></rect></mask><mask id="down-mask"><rect id="clipper" x="90" y="13.46704871060172" width="90" height="100" stroke-width="0" fill="#FFFFFF"></rect></mask><path id="day-0" stroke-linejoin="round" stroke="currentColor" stroke-width="4" fill="none" d="M0 71.63323782234957 L0 71.63323782234957 L0.32967032967032966 71.63323782234957 L0.6593406593406593 71.63323782234957 L0.989010989010989 71.34670487106017 L1.3186813186813187 72.49283667621776 L1.6483516483516483 73.92550143266476 L1.978021978021978 72.49283667621776 L2.3076923076923075 74.21203438395415 L2.6373626373626373 72.77936962750717 L2.967032967032967 72.20630372492836 L3.2967032967032965 72.77936962750717 L3.6263736263736264 74.78510028653295 L3.956043956043956 71.91977077363897 L4.285714285714286 69.05444126074498 L4.615384615384615 69.91404011461319 L4.945054945054945 68.48137535816619 L5.274725274725275 69.91404011461319 L5.604395604395604 71.34670487106017 L5.934065934065934 71.06017191977078 L6.263736263736264 70.77363896848138 L6.593406593406593 71.91977077363897 L6.923076923076923 70.20057306590259 L7.252747252747253 69.91404011461319 L7.582417582417582 68.76790830945558 L7.912087912087912 67.3352435530086 L8.241758241758241 69.34097421203438 L8.571428571428571 67.621776504298 L8.901098901098901 66.189111747851 L9.23076923076923 67.3352435530086 L9.56043956043956 69.05444126074498 L9.89010989010989 70.48710601719198 L10.219780219780219 74.49856733524355 L10.54945054945055 75.93123209169055 L10.87912087912088 75.93123209169055 L11.208791208791208 74.78510028653295 L11.538461538461538 75.93123209169055 L11.868131868131869 78.79656160458453 L12.197802197802197 76.21776504297995 L12.527472527472527 74.49856733524355 L12.857142857142858 71.06017191977078 L13.186813186813186 70.48710601719198 L13.516483516483516 72.77936962750717 L13.846153846153847 75.93123209169055 L14.175824175824175 76.21776504297995 L14.505494505494505 73.92550143266476 L14.835164835164836 74.21203438395415 L15.164835164835164 71.91977077363897 L15.494505494505495 73.35243553008596 L15.824175824175825 74.78510028653295 L16.153846153846153 75.93123209169055 L16.483516483516482 73.35243553008596 L16.813186813186814 74.78510028653295 L17.142857142857142 74.49856733524355 L17.47252747252747 74.78510028653295 L17.802197802197803 74.78510028653295 L18.13186813186813 73.92550143266476 L18.46153846153846 73.06590257879655 L18.791208791208792 71.91977077363897 L19.12087912087912 72.49283667621776 L19.45054945054945 72.20630372492836 L19.78021978021978 70.77363896848138 L20.10989010989011 71.63323782234957 L20.439560439560438 71.06017191977078 L20.76923076923077 73.35243553008596 L21.0989010989011 72.77936962750717 L21.428571428571427 72.20630372492836 L21.75824175824176 73.06590257879655 L22.087912087912088 73.06590257879655 L22.417582417582416 73.06590257879655 L22.747252747252748 72.77936962750717 L23.076923076923077 73.35243553008596 L23.406593406593405 74.21203438395415 L23.736263736263737 74.78510028653295 L24.065934065934066 75.35816618911176 L24.395604395604394 75.07163323782235 L24.725274725274726 75.35816618911176 L25.054945054945055 74.21203438395415 L25.384615384615383 75.07163323782235 L25.714285714285715 75.64469914040114 L26.043956043956044 75.35816618911176 L26.373626373626372 74.49856733524355 L26.703296703296704 74.49856733524355 L27.032967032967033 76.79083094555874 L27.36263736263736 74.21203438395415 L27.692307692307693 73.35243553008596 L28.021978021978022 72.49283667621776 L28.35164835164835 72.77936962750717 L28.681318681318682 73.06590257879655 L29.01098901098901 73.63896848137536 L29.34065934065934 75.07163323782235 L29.67032967032967 75.07163323782235 L30 73.92550143266476 L30.32967032967033 74.49856733524355 L30.65934065934066 73.92550143266476 L30.98901098901099 73.35243553008596 L31.318681318681318 73.06590257879655 L31.64835164835165 70.20057306590259 L31.978021978021978 71.34670487106017 L32.30769230769231 71.63323782234957 L32.637362637362635 70.20057306590259 L32.967032967032964 71.06017191977078 L33.2967032967033 71.63323782234957 L33.62637362637363 69.62750716332378 L33.956043956043956 67.90830945558739 L34.285714285714285 66.7621776504298 L34.61538461538461 66.189111747851 L34.94505494505494 66.7621776504298 L35.27472527472528 67.0487106017192 L35.604395604395606 63.89684813753582 L35.934065934065934 66.189111747851 L36.26373626373626 63.323782234957015 L36.59340659340659 65.61604584527221 L36.92307692307692 63.323782234957015 L37.252747252747255 63.03724928366762 L37.582417582417584 65.61604584527221 L37.91208791208791 68.19484240687679 L38.24175824175824 68.19484240687679 L38.57142857142857 64.18338108882521 L38.9010989010989 65.61604584527221 L39.23076923076923 66.189111747851 L39.56043956043956 63.323782234957015 L39.89010989010989 65.0429799426934 L40.21978021978022 66.4756446991404 L40.54945054945055 68.48137535816619 L40.879120879120876 67.621776504298 L41.20879120879121 67.621776504298 L41.53846153846154 67.90830945558739 L41.86813186813187 70.48710601719198 L42.1978021978022 68.48137535816619 L42.527472527472526 69.34097421203438 L42.857142857142854 68.48137535816619 L43.18681318681318 68.48137535816619 L43.51648351648352 71.06017191977078 L43.84615384615385 69.34097421203438 L44.175824175824175 68.19484240687679 L44.505494505494504 68.48137535816619 L44.83516483516483 68.19484240687679 L45.16483516483516 67.90830945558739 L45.494505494505496 67.90830945558739 L45.824175824175825 68.19484240687679 L46.15384615384615 67.90830945558739 L46.48351648351648 68.19484240687679 L46.81318681318681 67.0487106017192 L47.14285714285714 67.621776504298 L47.472527472527474 64.75644699140402 L47.8021978021978 65.61604584527221 L48.13186813186813 65.61604584527221 L48.46153846153846 65.61604584527221 L48.79120879120879 65.90257879656161 L49.12087912087912 66.7621776504298 L49.45054945054945 68.48137535816619 L49.78021978021978 67.90830945558739 L50.10989010989011 69.91404011461319 L50.43956043956044 69.05444126074498 L50.76923076923077 68.76790830945558 L51.098901098901095 71.91977077363897 L51.42857142857143 73.92550143266476 L51.75824175824176 72.49283667621776 L52.08791208791209 71.91977077363897 L52.417582417582416 71.91977077363897 L52.747252747252745 73.06590257879655 L53.07692307692307 73.63896848137536 L53.40659340659341 92.83667621776505 L53.73626373626374 97.70773638968481 L54.065934065934066 95.12893982808023 L54.395604395604394 96.56160458452722 L54.72527472527472 93.40974212034384 L55.05494505494505 91.97707736389685 L55.38461538461539 91.11747851002865 L55.714285714285715 93.69627507163324 L56.043956043956044 95.41547277936962 L56.37362637362637 90.54441260744986 L56.7032967032967 95.70200573065902 L57.03296703296703 95.98853868194843 L57.362637362637365 96.27507163323781 L57.69230769230769 95.70200573065902 L58.02197802197802 95.12893982808023 L58.35164835164835 93.12320916905445 L58.68131868131868 90.25787965616045 L59.01098901098901 87.67908309455588 L59.34065934065934 87.39255014326648 L59.67032967032967 89.68481375358166 L60 89.68481375358166 L60.32967032967033 83.95415472779369 L60.65934065934066 84.81375358166189 L60.989010989010985 82.52148997134671 L61.31868131868132 86.24641833810888 L61.64835164835165 84.5272206303725 L61.97802197802198 83.3810888252149 L62.30769230769231 81.37535816618912 L62.637362637362635 81.08882521489971 L62.967032967032964 81.66189111747852 L63.2967032967033 81.9484240687679 L63.62637362637363 90.25787965616045 L63.956043956043956 91.97707736389685 L64.28571428571428 92.26361031518626 L64.61538461538461 92.55014326647564 L64.94505494505495 88.82521489971347 L65.27472527472527 82.8080229226361 L65.6043956043956 81.66189111747852 L65.93406593406593 85.38681948424069 L66.26373626373626 91.40401146131805 L66.5934065934066 90.83094555873924 L66.92307692307692 88.25214899713467 L67.25274725274726 91.11747851002865 L67.58241758241758 98.56733524355302 L67.91208791208791 100 L68.24175824175823 94.26934097421203 L68.57142857142857 88.53868194842407 L68.9010989010989 87.10601719197709 L69.23076923076923 84.2406876790831 L69.56043956043956 87.10601719197709 L69.89010989010988 81.9484240687679 L70.21978021978022 77.65042979942693 L70.54945054945055 80.22922636103151 L70.87912087912088 76.50429799426934 L71.20879120879121 80.51575931232091 L71.53846153846153 80.51575931232091 L71.86813186813187 76.79083094555874 L72.19780219780219 77.93696275071633 L72.52747252747253 77.07736389684814 L72.85714285714286 77.07736389684814 L73.18681318681318 79.94269340974212 L73.51648351648352 79.65616045845272 L73.84615384615384 78.51002865329512 L74.17582417582418 76.79083094555874 L74.50549450549451 75.64469914040114 L74.83516483516483 76.21776504297995 L75.16483516483517 77.36389684813754 L75.49450549450549 76.21776504297995 L75.82417582417582 79.65616045845272 L76.15384615384615 80.80229226361033 L76.48351648351648 81.08882521489971 L76.81318681318682 83.0945558739255 L77.14285714285714 79.94269340974212 L77.47252747252747 75.93123209169055 L77.8021978021978 76.50429799426934 L78.13186813186813 71.63323782234957 L78.46153846153847 71.63323782234957 L78.79120879120879 71.63323782234957 L79.12087912087912 67.90830945558739 L79.45054945054945 59.598853868194844 L79.78021978021978 60.74498567335244 L80.1098901098901 63.89684813753582 L80.43956043956044 67.3352435530086 L80.76923076923077 66.189111747851 L81.0989010989011 61.891117478510026 L81.42857142857143 59.31232091690545 L81.75824175824175 60.458452722063036 L82.08791208791209 56.446991404011456 L82.41758241758242 58.73925501432665 L82.74725274725274 63.03724928366762 L83.07692307692308 61.60458452722063 L83.4065934065934 61.31805157593123 L83.73626373626374 63.03724928366762 L84.06593406593406 64.75644699140402 L84.3956043956044 61.60458452722063 L84.72527472527473 59.885386819484246 L85.05494505494505 62.75071633237822 L85.38461538461539 43.553008595988544 L85.71428571428571 26.64756446991404 L86.04395604395604 13.753581661891118 L86.37362637362637 14.040114613180515 L86.7032967032967 16.9054441260745 L87.03296703296704 19.197707736389685 L87.36263736263736 15.759312320916905 L87.6923076923077 13.46704871060172 L88.02197802197801 13.46704871060172 L88.35164835164835 9.742120343839542 L88.68131868131869 7.4498567335243555 L89.01098901098901 7.163323782234957 L89.34065934065934 10.028653295128938 L89.67032967032966 5.730659025787966 L90 0"/><path id="day-1" stroke-linejoin="round" stroke="currentColor" stroke-width="4" fill="none" d="M90 1.146131805157593 L90 1.146131805157593 L90.32967032967034 8.595988538681947 L90.65934065934066 8.022922636103152 L90.98901098901099 7.736389684813753 L91.31868131868131 10.028653295128938 L91.64835164835165 5.157593123209169 L91.97802197802199 7.163323782234957 L92.3076923076923 9.455587392550143 L92.63736263736264 9.742120343839542 L92.96703296703296 8.022922636103152 L93.2967032967033 7.163323782234957 L93.62637362637362 9.169054441260744 L93.95604395604396 13.753581661891118 L94.28571428571429 12.034383954154727 L94.61538461538461 9.742120343839542 L94.94505494505495 8.595988538681947 L95.27472527472527 9.742120343839542 L95.6043956043956 9.742120343839542 L95.93406593406593 10.601719197707736 L96.26373626373626 8.595988538681947 L96.5934065934066 6.876790830945559 L96.92307692307692 8.022922636103152 L97.25274725274726 8.30945558739255 L97.58241758241758 7.163323782234957 L97.91208791208791 9.455587392550143 L98.24175824175825 10.601719197707736 L98.57142857142857 10.028653295128938 L98.9010989010989 10.888252148997136 L99.23076923076923 11.461318051575931 L99.56043956043956 10.315186246418339 L99.8901098901099 8.882521489971348 L100.21978021978022 7.163323782234957 L100.54945054945055 7.736389684813753 L100.87912087912088 7.163323782234957 L101.20879120879121 7.736389684813753 L101.53846153846153 7.736389684813753 L101.86813186813187 6.59025787965616 L102.19780219780219 6.303724928366762 L102.52747252747253 6.303724928366762 L102.85714285714286 4.871060171919771 L103.18681318681318 4.871060171919771 L103.51648351648352 6.303724928366762 L103.84615384615384 7.163323782234957 L104.17582417582418 9.169054441260744 L104.50549450549451 9.742120343839542 L104.83516483516483 9.169054441260744 L105.16483516483517 10.601719197707736 L105.49450549450549 9.742120343839542 L105.82417582417582 10.315186246418339 L106.15384615384616 9.169054441260744 L106.48351648351648 11.74785100286533 L106.81318681318682 8.882521489971348 L107.14285714285714 9.455587392550143 L107.47252747252747 9.169054441260744 L107.80219780219781 10.028653295128938 L108.13186813186813 10.028653295128938 L108.46153846153845 10.601719197707736 L108.79120879120879 11.74785100286533 L109.12087912087912 11.74785100286533 L109.45054945054945 12.034383954154727 L109.78021978021978 10.888252148997136 L110.1098901098901 10.888252148997136 L110.43956043956044 10.028653295128938 L110.76923076923077 10.888252148997136 L111.0989010989011 9.455587392550143 L111.42857142857143 10.315186246418339 L111.75824175824175 10.028653295128938 L112.08791208791209 10.315186246418339 L112.41758241758242 9.742120343839542 L112.74725274725274 10.028653295128938 L113.07692307692308 9.455587392550143 L113.4065934065934 10.028653295128938 L113.73626373626374 10.888252148997136 L114.06593406593407 11.174785100286533 L114.3956043956044 9.455587392550143 L114.72527472527473 10.315186246418339 L115.05494505494505 9.742120343839542 L115.38461538461539 9.742120343839542 L115.71428571428572 10.601719197707736 L116.04395604395604 9.742120343839542 L116.37362637362637 9.455587392550143 L116.7032967032967 10.028653295128938 L117.03296703296704 9.742120343839542 L117.36263736263736 8.595988538681947 L117.6923076923077 10.601719197707736 L118.02197802197801 10.601719197707736 L118.35164835164835 9.742120343839542 L118.68131868131869 10.888252148997136 L119.01098901098901 10.888252148997136"/></defs><use xlink:href="#day-0" style="color: #CCCCCC" transform="translate(0, 0)"/><use xlink:href="#day-1" style="color: #FF433D" mask="url(#down-mask)" transform="translate(0, 0)"/><use xlink:href="#day-1" style="color: #1DCC92" mask="url(#up-mask)" transform="translate(0, 0)"/></a>
                </svg>