<!DOCTYPE svg PUBLIC '-//W3C//DTD SVG 1.1//EN' 'http://www.w3.org/Graphics/SVG/1.1/DTD/svg11.dtd'>
                <svg xmlns="http://www.w3.org/2000/svg" version="1.1" viewBox="0 0 180 100" preserveAspectRatio="none" xmlns:xlink="http://www.w3.org/1999/xlink">
                    <a href="https://www.bloomberg.com/quote/ES1:IND" target="_top"><rect height="100" width="180" fill="transparent"></rect><defs><mask id="up-mask"><rect id="clipper" x="90" y="0" width="90" height="20.30075187969925" stroke-width="0" fill="#FFFFFF"></rect></mask><mask id="down-mask"><rect id="clipper" x="90" y="20.30075187969925" width="90" height="100" stroke-width="0" fill="#FFFFFF"></rect></mask><path id="day-0" stroke-linejoin="round" stroke="currentColor" stroke-width="4" fill="none" d="M0 87.21804511278195 L0 87.21804511278195 L0.32967032967032966 86.46616541353383 L0.6593406593406593 86.46616541353383 L0.989010989010989 87.21804511278195 L1.3186813186813187 87.96992481203007 L1.6483516483516483 90.97744360902256 L1.978021978021978 88.7218045112782 L2.3076923076923075 90.22556390977444 L2.6373626373626373 90.22556390977444 L2.967032967032967 88.7218045112782 L3.2967032967032965 90.22556390977444 L3.6263736263736264 90.22556390977444 L3.956043956043956 89.47368421052632 L4.285714285714286 87.21804511278195 L4.615384615384615 87.96992481203007 L4.945054945054945 87.21804511278195 L5.274725274725275 87.96992481203007 L5.604395604395604 89.47368421052632 L5.934065934065934 90.22556390977444 L6.263736263736264 90.22556390977444 L6.593406593406593 91.72932330827066 L6.923076923076923 90.22556390977444 L7.252747252747253 89.47368421052632 L7.582417582417582 87.21804511278195 L7.912087912087912 87.21804511278195 L8.241758241758241 88.7218045112782 L8.571428571428571 87.21804511278195 L8.901098901098901 85.71428571428571 L9.23076923076923 87.21804511278195 L9.56043956043956 89.47368421052632 L9.89010989010989 90.97744360902256 L10.219780219780219 95.48872180451127 L10.54945054945055 96.99248120300751 L10.87912087912088 96.2406015037594 L11.208791208791208 95.48872180451127 L11.538461538461538 96.2406015037594 L11.868131868131869 99.24812030075188 L12.197802197802197 97.74436090225564 L12.527472527472527 94.73684210526315 L12.857142857142858 92.4812030075188 L13.186813186813186 90.97744360902256 L13.516483516483516 93.23308270676691 L13.846153846153847 96.99248120300751 L14.175824175824175 96.2406015037594 L14.505494505494505 94.73684210526315 L14.835164835164836 93.98496240601504 L15.164835164835164 92.4812030075188 L15.494505494505495 94.73684210526315 L15.824175824175825 96.99248120300751 L16.153846153846153 96.99248120300751 L16.483516483516482 95.48872180451127 L16.813186813186814 95.48872180451127 L17.142857142857142 94.73684210526315 L17.47252747252747 95.48872180451127 L17.802197802197803 96.2406015037594 L18.13186813186813 94.73684210526315 L18.46153846153846 93.23308270676691 L18.791208791208792 91.72932330827066 L19.12087912087912 93.23308270676691 L19.45054945054945 92.4812030075188 L19.78021978021978 90.97744360902256 L20.10989010989011 92.4812030075188 L20.439560439560438 92.4812030075188 L20.76923076923077 94.73684210526315 L21.0989010989011 93.98496240601504 L21.428571428571427 93.98496240601504 L21.75824175824176 94.73684210526315 L22.087912087912088 94.73684210526315 L22.417582417582416 94.73684210526315 L22.747252747252748 93.98496240601504 L23.076923076923077 95.48872180451127 L23.406593406593405 96.99248120300751 L23.736263736263737 96.2406015037594 L24.065934065934066 96.99248120300751 L24.395604395604394 96.99248120300751 L24.725274725274726 96.99248120300751 L25.054945054945055 95.48872180451127 L25.384615384615383 96.99248120300751 L25.714285714285715 97.74436090225564 L26.043956043956044 97.74436090225564 L26.373626373626372 96.99248120300751 L26.703296703296704 97.74436090225564 L27.032967032967033 100 L27.36263736263736 97.74436090225564 L27.692307692307693 96.99248120300751 L28.021978021978022 96.99248120300751 L28.35164835164835 97.74436090225564 L28.681318681318682 97.74436090225564 L29.01098901098901 98.49624060150376 L29.34065934065934 98.49624060150376 L29.67032967032967 98.49624060150376 L30 97.74436090225564 L30.32967032967033 97.74436090225564 L30.65934065934066 96.99248120300751 L30.98901098901099 95.48872180451127 L31.318681318681318 95.48872180451127 L31.64835164835165 92.4812030075188 L31.978021978021978 93.98496240601504 L32.30769230769231 94.73684210526315 L32.637362637362635 93.23308270676691 L32.967032967032964 93.98496240601504 L33.2967032967033 93.98496240601504 L33.62637362637363 92.4812030075188 L33.956043956043956 90.22556390977444 L34.285714285714285 90.22556390977444 L34.61538461538461 89.47368421052632 L34.94505494505494 88.7218045112782 L35.27472527472528 87.96992481203007 L35.604395604395606 87.21804511278195 L35.934065934065934 89.47368421052632 L36.26373626373626 86.46616541353383 L36.59340659340659 89.47368421052632 L36.92307692307692 87.21804511278195 L37.252747252747255 84.9624060150376 L37.582417582417584 87.96992481203007 L37.91208791208791 90.22556390977444 L38.24175824175824 89.47368421052632 L38.57142857142857 84.9624060150376 L38.9010989010989 86.46616541353383 L39.23076923076923 87.21804511278195 L39.56043956043956 83.45864661654136 L39.89010989010989 86.46616541353383 L40.21978021978022 87.96992481203007 L40.54945054945055 90.22556390977444 L40.879120879120876 89.47368421052632 L41.20879120879121 88.7218045112782 L41.53846153846154 88.7218045112782 L41.86813186813187 90.97744360902256 L42.1978021978022 87.96992481203007 L42.527472527472526 87.96992481203007 L42.857142857142854 87.96992481203007 L43.18681318681318 87.96992481203007 L43.51648351648352 90.22556390977444 L43.84615384615385 88.7218045112782 L44.175824175824175 87.21804511278195 L44.505494505494504 87.21804511278195 L44.83516483516483 87.96992481203007 L45.16483516483516 88.7218045112782 L45.494505494505496 87.21804511278195 L45.824175824175825 87.21804511278195 L46.15384615384615 87.21804511278195 L46.48351648351648 87.96992481203007 L46.81318681318681 84.9624060150376 L47.14285714285714 85.71428571428571 L47.472527472527474 81.203007518797 L47.8021978021978 81.203007518797 L48.13186813186813 81.95488721804512 L48.46153846153846 84.21052631578947 L48.79120879120879 83.45864661654136 L49.12087912087912 84.21052631578947 L49.45054945054945 87.21804511278195 L49.78021978021978 87.21804511278195 L50.10989010989011 88.7218045112782 L50.43956043956044 88.7218045112782 L50.76923076923077 88.7218045112782 L51.098901098901095 90.22556390977444 L51.42857142857143 93.23308270676691 L51.75824175824176 90.97744360902256 L52.08791208791209 91.72932330827066 L52.417582417582416 91.72932330827066 L52.747252747252745 93.23308270676691 L53.07692307692307 95.48872180451127 L53.40659340659341 97.74436090225564 L53.73626373626374 99.24812030075188 L54.065934065934066 97.74436090225564 L54.395604395604394 98.49624060150376 L54.72527472527472 96.2406015037594 L55.05494505494505 93.98496240601504 L55.38461538461539 93.23308270676691 L55.714285714285715 95.48872180451127 L56.043956043956044 95.48872180451127 L56.37362637362637 90.22556390977444 L56.7032967032967 93.98496240601504 L57.03296703296703 94.73684210526315 L57.362637362637365 95.48872180451127 L57.69230769230769 93.98496240601504 L58.02197802197802 93.23308270676691 L58.35164835164835 92.4812030075188 L58.68131868131868 90.22556390977444 L59.01098901098901 87.96992481203007 L59.34065934065934 88.7218045112782 L59.67032967032967 90.22556390977444 L60 90.97744360902256 L60.32967032967033 87.96992481203007 L60.65934065934066 86.46616541353383 L60.989010989010985 87.21804511278195 L61.31868131868132 83.45864661654136 L61.64835164835165 77.44360902255639 L61.97802197802198 75.93984962406014 L62.30769230769231 69.92481203007519 L62.637362637362635 68.42105263157895 L62.967032967032964 71.42857142857143 L63.2967032967033 71.42857142857143 L63.62637362637363 80.45112781954887 L63.956043956043956 81.203007518797 L64.28571428571428 80.45112781954887 L64.61538461538461 78.94736842105263 L64.94505494505495 78.19548872180451 L65.27472527472527 69.92481203007519 L65.6043956043956 69.92481203007519 L65.93406593406593 76.69172932330827 L66.26373626373626 81.95488721804512 L66.5934065934066 83.45864661654136 L66.92307692307692 79.69924812030075 L67.25274725274726 80.45112781954887 L67.58241758241758 83.45864661654136 L67.91208791208791 82.70676691729322 L68.24175824175823 78.94736842105263 L68.57142857142857 74.43609022556392 L68.9010989010989 70.67669172932331 L69.23076923076923 71.42857142857143 L69.56043956043956 72.93233082706767 L69.89010989010988 66.9172932330827 L70.21978021978022 65.41353383458647 L70.54945054945055 67.66917293233082 L70.87912087912088 61.65413533834586 L71.20879120879121 66.9172932330827 L71.53846153846153 66.9172932330827 L71.86813186813187 63.90977443609023 L72.19780219780219 65.41353383458647 L72.52747252747253 61.65413533834586 L72.85714285714286 62.40601503759399 L73.18681318681318 65.41353383458647 L73.51648351648352 63.90977443609023 L73.84615384615384 59.3984962406015 L74.17582417582418 57.14285714285714 L74.50549450549451 55.639097744360896 L74.83516483516483 54.88721804511278 L75.16483516483517 56.390977443609025 L75.49450549450549 57.14285714285714 L75.82417582417582 59.3984962406015 L76.15384615384615 62.40601503759399 L76.48351648351648 63.1578947368421 L76.81318681318682 63.90977443609023 L77.14285714285714 62.40601503759399 L77.47252747252747 57.89473684210527 L77.8021978021978 56.390977443609025 L78.13186813186813 53.383458646616546 L78.46153846153847 51.8796992481203 L78.79120879120879 51.8796992481203 L79.12087912087912 46.616541353383454 L79.45054945054945 41.35338345864661 L79.78021978021978 42.857142857142854 L80.1098901098901 46.616541353383454 L80.43956043956044 49.62406015037594 L80.76923076923077 48.1203007518797 L81.0989010989011 43.609022556390975 L81.42857142857143 41.35338345864661 L81.75824175824175 43.609022556390975 L82.08791208791209 38.34586466165413 L82.41758241758242 40.6015037593985 L82.74725274725274 43.609022556390975 L83.07692307692308 42.857142857142854 L83.4065934065934 42.857142857142854 L83.73626373626374 44.3609022556391 L84.06593406593406 47.368421052631575 L84.3956043956044 45.11278195488722 L84.72527472527473 45.11278195488722 L85.05494505494505 48.1203007518797 L85.38461538461539 27.819548872180448 L85.71428571428571 15.789473684210526 L86.04395604395604 0 L86.37362637362637 0 L86.7032967032967 2.2556390977443606 L87.03296703296704 6.7669172932330826 L87.36263736263736 19.548872180451127 L87.6923076923077 19.548872180451127 L88.02197802197801 21.804511278195488 L88.35164835164835 15.789473684210526 L88.68131868131869 13.533834586466165 L89.01098901098901 12.781954887218044 L89.34065934065934 12.781954887218044 L89.67032967032966 10.526315789473683 L90 8.270676691729323"/><path id="day-1" stroke-linejoin="round" stroke="currentColor" stroke-width="4" fill="none" d="M90 30.82706766917293 L90 30.82706766917293 L90.32967032967034 35.338345864661655 L90.65934065934066 29.32330827067669 L90.98901098901099 30.075187969924812 L91.31868131868131 33.83458646616541 L91.64835164835165 28.57142857142857 L91.97802197802199 30.075187969924812 L92.3076923076923 32.33082706766917 L92.63736263736264 34.58646616541353 L92.96703296703296 33.83458646616541 L93.2967032967033 32.33082706766917 L93.62637362637362 34.58646616541353 L93.95604395604396 40.6015037593985 L94.28571428571429 39.849624060150376 L94.61538461538461 35.338345864661655 L94.94505494505495 34.58646616541353 L95.27472527472527 36.09022556390977 L95.6043956043956 35.338345864661655 L95.93406593406593 36.09022556390977 L96.26373626373626 34.58646616541353 L96.5934065934066 33.08270676691729 L96.92307692307692 34.58646616541353 L97.25274725274726 34.58646616541353 L97.58241758241758 33.08270676691729 L97.91208791208791 33.83458646616541 L98.24175824175825 35.338345864661655 L98.57142857142857 36.09022556390977 L98.9010989010989 36.09022556390977 L99.23076923076923 37.59398496240601 L99.56043956043956 36.09022556390977 L99.8901098901099 35.338345864661655 L100.21978021978022 31.57894736842105 L100.54945054945055 31.57894736842105 L100.87912087912088 31.57894736842105 L101.20879120879121 31.57894736842105 L101.53846153846153 32.33082706766917 L101.86813186813187 31.57894736842105 L102.19780219780219 31.57894736842105 L102.52747252747253 31.57894736842105 L102.85714285714286 29.32330827067669 L103.18681318681318 29.32330827067669 L103.51648351648352 30.82706766917293 L103.84615384615384 32.33082706766917 L104.17582417582418 33.83458646616541 L104.50549450549451 34.58646616541353 L104.83516483516483 33.83458646616541 L105.16483516483517 37.59398496240601 L105.49450549450549 36.84210526315789 L105.82417582417582 37.59398496240601 L106.15384615384616 36.09022556390977 L106.48351648351648 39.849624060150376 L106.81318681318682 36.09022556390977 L107.14285714285714 38.34586466165413 L107.47252747252747 37.59398496240601 L107.80219780219781 38.34586466165413 L108.13186813186813 39.097744360902254 L108.46153846153845 39.849624060150376 L108.79120879120879 41.35338345864661 L109.12087912087912 42.10526315789473 L109.45054945054945 42.10526315789473 L109.78021978021978 42.857142857142854 L110.1098901098901 41.35338345864661 L110.43956043956044 40.6015037593985 L110.76923076923077 42.10526315789473 L111.0989010989011 40.6015037593985 L111.42857142857143 41.35338345864661 L111.75824175824175 39.849624060150376 L112.08791208791209 40.6015037593985 L112.41758241758242 40.6015037593985 L112.74725274725274 40.6015037593985 L113.07692307692308 39.849624060150376 L113.4065934065934 39.849624060150376 L113.73626373626374 41.35338345864661 L114.06593406593407 42.10526315789473 L114.3956043956044 40.6015037593985 L114.72527472527473 41.35338345864661 L115.05494505494505 40.6015037593985 L115.38461538461539 41.35338345864661 L115.71428571428572 41.35338345864661 L116.04395604395604 41.35338345864661 L116.37362637362637 39.849624060150376 L116.7032967032967 41.35338345864661 L117.03296703296704 40.6015037593985 L117.36263736263736 39.849624060150376 L117.6923076923077 42.10526315789473 L118.02197802197801 42.10526315789473 L118.35164835164835 40.6015037593985 L118.68131868131869 42.857142857142854 L119.01098901098901 42.10526315789473"/></defs><use xlink:href="#day-0" style="color: #CCCCCC" transform="translate(0, 0)"/><use xlink:href="#day-1" style="color: #FF433D" mask="url(#down-mask)" transform="translate(0, 0)"/><use xlink:href="#day-1" style="color: #1DCC92" mask="url(#up-mask)" transform="translate(0, 0)"/></a>
                </svg>