<!DOCTYPE svg PUBLIC '-//W3C//DTD SVG 1.1//EN' 'http://www.w3.org/Graphics/SVG/1.1/DTD/svg11.dtd'>
                <svg xmlns="http://www.w3.org/2000/svg" version="1.1" viewBox="0 0 180 100" preserveAspectRatio="none" xmlns:xlink="http://www.w3.org/1999/xlink">
                    <a href="https://www.bloomberg.com/quote/NKY:IND" target="_top"><rect height="100" width="180" fill="transparent"></rect><defs><mask id="up-mask"><rect id="clipper" x="90" y="0" width="90" height="32.73679615888279" stroke-width="0" fill="#FFFFFF"></rect></mask><mask id="down-mask"><rect id="clipper" x="90" y="32.73679615888279" width="90" height="100" stroke-width="0" fill="#FFFFFF"></rect></mask><path id="day-0" stroke-linejoin="round" stroke="currentColor" stroke-width="4" fill="none" d="M0 12.941946748145632 L0 12.941946748145632 L1.4285714285714286 40.62636403317307 L2.857142857142857 15.539065910084778 L4.285714285714286 11.174159755567073 L5.714285714285714 18.212570929723697 L7.142857142857143 30.71802706241994 L8.571428571428571 37.12352684417356 L10 79.69227411610575 L11.428571428571429 95.80969009166284 L12.857142857142858 85.59580969009077 L14.285714285714286 79.31034482758703 L15.714285714285715 71.7808817110424 L17.142857142857142 81.16542994325785 L18.571428571428573 61.81798341335859 L20 44.17285028371871 L21.42857142857143 37.95285901353018 L22.857142857142858 0 L24.285714285714285 34.406372762984546 L25.714285714285715 53.939327804452866 L27.142857142857142 53.51374945438803 L28.571428571428573 54.79048450458255 L30 32.35486687036408 L31.42857142857143 23.013967699694764 L32.85714285714286 19.631165429945128 L34.285714285714285 27.22610213880498 L35.714285714285715 31.612832824095754 L37.142857142857146 29.026625927541154 L38.57142857142857 32.507638585771566 L40 32.180270624183535 L41.42857142857143 35.30117852466035 L42.85714285714286 36.46879092099353 L44.285714285714285 36.46879092099353 L45.714285714285715 9.493670886076803 L47.142857142857146 22.93758184199102 L48.57142857142857 23.865124399824445 L50 22.446529899606986 L51.42857142857143 18.75818419903841 L52.85714285714286 28.81929288520299 L54.285714285714285 28.61195984286483 L55.714285714285715 29.932343954605482 L57.142857142857146 29.779572239198 L58.57142857142857 28.15364469663841 L60 15.855521606284295 L61.42857142857143 27.61894369271221 L62.85714285714286 30.401571366216455 L64.28571428571429 50.523788738541654 L65.71428571428572 53.1536446966384 L67.14285714285714 56.78742907027631 L68.57142857142857 62.63640331733066 L70 51.134875600175555 L71.42857142857143 49.31252728066235 L72.85714285714286 47.11916193801895 L74.28571428571429 44.02007856831122 L75.71428571428572 45.20951549541745 L77.14285714285714 49.42164993452767 L78.57142857142857 47.566564818856854 L80 50.6983849847222 L81.42857142857143 45.809690091662844 L82.85714285714286 56.04539502400797 L84.28571428571429 56.04539502400797 L85.71428571428572 47.642950676560595 L87.14285714285714 36.250545613270816 L88.57142857142857 32.73679615888279 L90 32.73679615888279"/><path id="day-1" stroke-linejoin="round" stroke="currentColor" stroke-width="4" fill="none" d="M90 23.046704495852374 L90 23.046704495852374 L91.42857142857143 22.861195984287278 L92.85714285714286 27.24792666957805 L94.28571428571429 67.38323876036708 L95.71428571428571 100 L97.14285714285714 93.4417285028389 L98.57142857142857 96.58446093408878 L100 82.37669140113715 L101.42857142857143 49.69445656918503 L102.85714285714286 46.34439109559301 L104.28571428571429 69.5220427760798 L105.71428571428572 68.26713225665834 L107.14285714285714 36.8179834133586 L108.57142857142857 34.39546049759999 L110 11.152335224794008 L111.42857142857143 12.52728066346534 L112.85714285714286 20.64600611086684 L114.28571428571428 28.993889131383543 L115.71428571428572 32.07114797031821 L117.14285714285714 35.759493670886776 L118.57142857142857 54.34308162374464 L120 46.704495853338656 L121.42857142857143 59.37363596682693 L122.85714285714286 61.6870362287202 L124.28571428571428 81.31820165866533 L125.71428571428572 78.03360977738853 L127.14285714285714 84.53731994762293 L128.57142857142856 64.66608467917806 L130 59.73374072457654 L131.42857142857144 59.60279353993816 L132.85714285714286 56.76560453950324 L134.28571428571428 56.76560453950324 L135.71428571428572 85.97773897861346 L137.14285714285714 80.58707987778155 L138.57142857142856 72.41379310344938 L140 74.22522915757406 L141.42857142857144 61.61065037101646 L142.85714285714286 66.70667830641794 L144.28571428571428 70.96246180707033 L145.71428571428572 62.99650807507631 L147.14285714285714 52.34613705805485 L148.57142857142856 48.98515931907432 L150 53.535573985161086 L151.42857142857144 61.21780881710923 L152.85714285714286 57.50763858577157 L154.28571428571428 67.2632038411172 L155.71428571428572 56.70013094718405 L157.14285714285714 61.567001309470335 L158.57142857142856 65.16804888695061 L160 58.82802269751222 L161.42857142857144 64.26233085988629 L162.85714285714286 77.09515495417057 L164.28571428571428 69.65298996071819 L165.71428571428572 70.5696202531631"/></defs><use xlink:href="#day-0" style="color: #CCCCCC" transform="translate(0, 0)"/><use xlink:href="#day-1" style="color: #FF433D" mask="url(#down-mask)" transform="translate(0, 0)"/><use xlink:href="#day-1" style="color: #1DCC92" mask="url(#up-mask)" transform="translate(0, 0)"/></a>
                </svg>