<!DOCTYPE svg PUBLIC '-//W3C//DTD SVG 1.1//EN' 'http://www.w3.org/Graphics/SVG/1.1/DTD/svg11.dtd'>
                <svg xmlns="http://www.w3.org/2000/svg" version="1.1" viewBox="0 0 180 100" preserveAspectRatio="none" xmlns:xlink="http://www.w3.org/1999/xlink">
                    <a href="https://www.bloomberg.com/quote/TPX:IND" target="_top"><rect height="100" width="180" fill="transparent"></rect><defs><mask id="up-mask"><rect id="clipper" x="90" y="0" width="90" height="92.64705882352942" stroke-width="0" fill="#FFFFFF"></rect></mask><mask id="down-mask"><rect id="clipper" x="90" y="92.64705882352942" width="90" height="100" stroke-width="0" fill="#FFFFFF"></rect></mask><path id="day-0" stroke-linejoin="round" stroke="currentColor" stroke-width="4" fill="none" d="M0 79.05882352941208 L0 79.05882352941208 L1.4754098360655739 89.8235294117646 L2.9508196721311477 79.23529411764721 L4.426229508196721 71.11764705882305 L5.901639344262295 73.99999999999957 L7.3770491803278695 77.11764705882428 L8.852459016393443 80.35294117647108 L10.327868852459018 96.35294117647123 L11.80327868852459 97.47058823529375 L13.278688524590164 93.70588235294154 L14.754098360655739 94.88235294117712 L16.229508196721312 95.94117647058792 L17.704918032786885 99.70588235294144 L19.18032786885246 95.94117647058792 L20.655737704918035 89.2941176470592 L22.13114754098361 87.88235294117679 L23.60655737704918 73.29411764705904 L25.081967213114755 83.99999999999984 L26.557377049180328 89.17647058823577 L28.032786885245905 89.94117647058802 L29.508196721311478 92.17647058823573 L30.98360655737705 85.05882352941198 L32.459016393442624 77.88235294117652 L33.9344262295082 77.47058823529454 L35.40983606557377 80.76470588235306 L36.885245901639344 80.64705882352963 L38.36065573770492 78.58823529411839 L39.8360655737705 80.29411764705937 L41.31147540983607 79.94117647058775 L42.786885245901644 84.17647058823498 L44.26229508196722 85.23529411764711 L45.73770491803279 74.88235294117658 L47.21311475409836 80.82352941176477 L48.68852459016394 81.9411764705886 L50.16393442622951 81.41176470588188 L51.63934426229508 79.76470588235262 L53.114754098360656 82.29411764705887 L54.59016393442623 82.11764705882374 L56.06557377049181 84.58823529411829 L57.54098360655738 85.82352941176423 L59.016393442622956 86.5294117647061 L60.49180327868853 82.11764705882374 L61.9672131147541 84.47058823529487 L63.442622950819676 84.58823529411829 L64.91803278688525 91.47058823529385 L66.39344262295083 93.94117647058839 L67.8688524590164 94.64705882352892 L69.34426229508198 99.117647058823 L70.81967213114754 96.29411764705952 L72.29508196721312 95.23529411764738 L73.77049180327869 94.5294117647055 L75.24590163934427 94.47058823529379 L76.72131147540983 95.99999999999963 L78.19672131147541 98.5882352941176 L79.672131147541 97.58823529411717 L81.14754098360656 99.4705882352946 L82.62295081967214 97.82352941176535 L84.09836065573771 100 L85.57377049180329 99.58823529411802 L87.04918032786885 97.2352941176469 L88.52459016393443 93.76470588235325 L90 92.64705882352942"/><path id="day-1" stroke-linejoin="round" stroke="currentColor" stroke-width="4" fill="none" d="M90 22.117647058823476 L90 22.117647058823476 L91.47540983606558 20.117647058823955 L92.95081967213115 25.05882352941171 L94.42622950819673 38.4705882352939 L95.90163934426229 38.17647058823535 L97.37704918032787 31.117647058823316 L98.85245901639344 30.176470588235937 L100.32786885245902 23.882352941176148 L101.80327868852459 11.411764705882673 L103.27868852459017 11.76470588235294 L104.75409836065575 18.76470588235326 L106.22950819672131 21.058823529411335 L107.70491803278688 8.52941176470615 L109.18032786885246 9.352941176470107 L110.65573770491804 0.23529411764684482 L112.1311475409836 0 L113.60655737704919 7.88235294117599 L115.08196721311475 9.588235294118288 L116.55737704918033 8.764705882352995 L118.03278688524591 11.882352941176363 L119.50819672131148 16.647058823528983 L120.98360655737704 15.29411764705829 L122.45901639344262 21.705882352941497 L123.9344262295082 23.764705882352725 L125.40983606557377 29.470588235294066 L126.88524590163934 29.058823529412088 L128.36065573770492 31.82352941176519 L129.8360655737705 27.352941176471123 L131.31147540983608 25.117647058823422 L132.78688524590166 25.176470588235134 L134.2622950819672 24.294117647059466 L135.7377049180328 31.411764705881872 L137.21311475409837 25.94117647058872 L138.68852459016392 26.94117647058781 L140.1639344262295 27.70588235294139 L141.63934426229508 23.352941176470747 L143.11475409836066 26.235294117647275 L144.59016393442624 30.941176470588182 L146.06557377049182 28.470588235293636 L147.54098360655738 23.52941176470588 L149.01639344262296 22.117647058823476 L150.49180327868854 23.294117647059036 L151.9672131147541 25.823529411765296 L153.44262295081967 25.588235294117112 L154.91803278688525 28.058823529411658 L156.39344262295083 25.47058823529369 L157.8688524590164 27.470588235294546 L159.344262295082 28.882352941176954 L160.81967213114754 25.294117647058556 L162.29508196721312 27.823529411764813 L163.77049180327867 29.941176470587756 L165.24590163934425 30.41176470588278"/></defs><use xlink:href="#day-0" style="color: #CCCCCC" transform="translate(0, 0)"/><use xlink:href="#day-1" style="color: #FF433D" mask="url(#down-mask)" transform="translate(0, 0)"/><use xlink:href="#day-1" style="color: #1DCC92" mask="url(#up-mask)" transform="translate(0, 0)"/></a>
                </svg>