<!DOCTYPE svg PUBLIC '-//W3C//DTD SVG 1.1//EN' 'http://www.w3.org/Graphics/SVG/1.1/DTD/svg11.dtd'>
                <svg xmlns="http://www.w3.org/2000/svg" version="1.1" viewBox="0 0 180 100" preserveAspectRatio="none" xmlns:xlink="http://www.w3.org/1999/xlink">
                    <a href="https://www.bloomberg.com/quote/USDJPY:CUR" target="_top"><rect height="100" width="180" fill="transparent"></rect><defs><mask id="up-mask"><rect id="clipper" x="90" y="0" width="90" height="66.66666666666606" stroke-width="0" fill="#FFFFFF"></rect></mask><mask id="down-mask"><rect id="clipper" x="90" y="66.66666666666606" width="90" height="100" stroke-width="0" fill="#FFFFFF"></rect></mask><path id="day-0" stroke-linejoin="round" stroke="currentColor" stroke-width="4" fill="none" d="M0 19.23076923076993 L0 19.23076923076993 L0.3125 20.512820512820046 L0.625 19.23076923076993 L0.9375 24.35897435897403 L1.25 24.35897435897403 L1.5625 26.923076923076085 L1.875 26.923076923076085 L2.1875 21.79487179487198 L2.5 24.35897435897403 L2.8125 24.35897435897403 L3.125 25.641025641025966 L3.4375 24.35897435897403 L3.75 24.35897435897403 L4.0625 23.076923076923915 L4.375 20.512820512820046 L4.6875 21.79487179487198 L5 20.512820512820046 L5.3125 20.512820512820046 L5.625 20.512820512820046 L5.9375 19.23076923076993 L6.25 19.23076923076993 L6.5625 15.384615384615946 L6.875 15.384615384615946 L7.1875 15.384615384615946 L7.5 10.256410256410023 L7.8125 8.974358974358086 L8.125 6.410256410256037 L8.4375 5.128205128205923 L8.75 3.8461538461539866 L9.0625 2.56410256410205 L9.375 6.410256410256037 L9.6875 6.410256410256037 L10 0 L10.3125 2.56410256410205 L10.625 1.282051282051936 L10.9375 3.8461538461539866 L11.25 8.974358974358086 L11.5625 21.79487179487198 L11.875 17.948717948717995 L12.1875 19.23076923076993 L12.5 26.923076923076085 L12.8125 23.076923076923915 L13.125 24.35897435897403 L13.4375 24.35897435897403 L13.75 23.076923076923915 L14.0625 28.205128205128016 L14.375 30.769230769230067 L14.6875 34.61538461538405 L15 38.46153846153804 L15.3125 38.46153846153804 L15.625 35.89743589743599 L15.9375 51.28205128205193 L16.25 46.15384615384601 L16.5625 48.71794871794806 L16.875 43.58974358974396 L17.1875 42.30769230769203 L17.5 42.30769230769203 L17.8125 38.46153846153804 L18.125 38.46153846153804 L18.4375 37.17948717948792 L18.75 38.46153846153804 L19.0625 34.61538461538405 L19.375 32.051282051282 L19.6875 33.33333333333394 L20 32.051282051282 L20.3125 32.051282051282 L20.625 33.33333333333394 L20.9375 34.61538461538405 L21.25 34.61538461538405 L21.5625 34.61538461538405 L21.875 34.61538461538405 L22.1875 33.33333333333394 L22.5 33.33333333333394 L22.8125 32.051282051282 L23.125 33.33333333333394 L23.4375 32.051282051282 L23.75 30.769230769230067 L24.0625 25.641025641025966 L24.375 20.512820512820046 L24.6875 23.076923076923915 L25 24.35897435897403 L25.3125 24.35897435897403 L25.625 24.35897435897403 L25.9375 24.35897435897403 L26.25 26.923076923076085 L26.5625 25.641025641025966 L26.875 25.641025641025966 L27.1875 24.35897435897403 L27.5 23.076923076923915 L27.8125 23.076923076923915 L28.125 24.35897435897403 L28.4375 23.076923076923915 L28.75 19.23076923076993 L29.0625 19.23076923076993 L29.375 19.23076923076993 L29.6875 20.512820512820046 L30 20.512820512820046 L30.3125 21.79487179487198 L30.625 25.641025641025966 L30.9375 25.641025641025966 L31.25 25.641025641025966 L31.5625 21.79487179487198 L31.875 23.076923076923915 L32.1875 25.641025641025966 L32.5 26.923076923076085 L32.8125 25.641025641025966 L33.125 24.35897435897403 L33.4375 25.641025641025966 L33.75 20.512820512820046 L34.0625 17.948717948717995 L34.375 17.948717948717995 L34.6875 16.66666666666606 L35 14.102564102564008 L35.3125 14.102564102564008 L35.625 11.538461538461958 L35.9375 7.692307692307973 L36.25 10.256410256410023 L36.5625 7.692307692307973 L36.875 14.102564102564008 L37.1875 17.948717948717995 L37.5 30.769230769230067 L37.8125 33.33333333333394 L38.125 35.89743589743599 L38.4375 34.61538461538405 L38.75 34.61538461538405 L39.0625 37.17948717948792 L39.375 41.02564102564009 L39.6875 33.33333333333394 L40 33.33333333333394 L40.3125 34.61538461538405 L40.625 42.30769230769203 L40.9375 37.17948717948792 L41.25 38.46153846153804 L41.5625 39.74358974358998 L41.875 41.02564102564009 L42.1875 35.89743589743599 L42.5 38.46153846153804 L42.8125 34.61538461538405 L43.125 33.33333333333394 L43.4375 33.33333333333394 L43.75 34.61538461538405 L44.0625 33.33333333333394 L44.375 29.487179487179954 L44.6875 33.33333333333394 L45 35.89743589743599 L45.3125 41.02564102564009 L45.625 39.74358974358998 L45.9375 42.30769230769203 L46.25 37.17948717948792 L46.5625 35.89743589743599 L46.875 35.89743589743599 L47.1875 35.89743589743599 L47.5 35.89743589743599 L47.8125 39.74358974358998 L48.125 39.74358974358998 L48.4375 39.74358974358998 L48.75 44.87179487179408 L49.0625 48.71794871794806 L49.375 52.56410256410206 L49.6875 51.28205128205193 L50 52.56410256410206 L50.3125 48.71794871794806 L50.625 46.15384615384601 L50.9375 46.15384615384601 L51.25 44.87179487179408 L51.5625 48.71794871794806 L51.875 53.84615384615399 L52.1875 58.97435897435809 L52.5 56.41025641025603 L52.8125 57.69230769230798 L53.125 58.97435897435809 L53.4375 56.41025641025603 L53.75 53.84615384615399 L54.0625 56.41025641025603 L54.375 56.41025641025603 L54.6875 57.69230769230798 L55 55.12820512820592 L55.3125 55.12820512820592 L55.625 53.84615384615399 L55.9375 56.41025641025603 L56.25 55.12820512820592 L56.5625 53.84615384615399 L56.875 50 L57.1875 48.71794871794806 L57.5 50 L57.8125 47.43589743589795 L58.125 44.87179487179408 L58.4375 39.74358974358998 L58.75 38.46153846153804 L59.0625 39.74358974358998 L59.375 38.46153846153804 L59.6875 42.30769230769203 L60 42.30769230769203 L60.3125 43.58974358974396 L60.625 43.58974358974396 L60.9375 46.15384615384601 L61.25 48.71794871794806 L61.5625 44.87179487179408 L61.875 44.87179487179408 L62.1875 53.84615384615399 L62.5 53.84615384615399 L62.8125 57.69230769230798 L63.125 56.41025641025603 L63.4375 62.82051282051208 L63.75 62.82051282051208 L64.0625 64.102564102564 L64.375 61.538461538461966 L64.6875 56.41025641025603 L65 57.69230769230798 L65.3125 57.69230769230798 L65.625 57.69230769230798 L65.9375 53.84615384615399 L66.25 56.41025641025603 L66.5625 60.25641025641002 L66.875 53.84615384615399 L67.1875 51.28205128205193 L67.5 51.28205128205193 L67.8125 51.28205128205193 L68.125 50 L68.4375 46.15384615384601 L68.75 42.30769230769203 L69.0625 38.46153846153804 L69.375 41.02564102564009 L69.6875 37.17948717948792 L70 33.33333333333394 L70.3125 32.051282051282 L70.625 32.051282051282 L70.9375 28.205128205128016 L71.25 28.205128205128016 L71.5625 32.051282051282 L71.875 24.35897435897403 L72.1875 28.205128205128016 L72.5 26.923076923076085 L72.8125 25.641025641025966 L73.125 26.923076923076085 L73.4375 28.205128205128016 L73.75 21.79487179487198 L74.0625 24.35897435897403 L74.375 24.35897435897403 L74.6875 28.205128205128016 L75 28.205128205128016 L75.3125 29.487179487179954 L75.625 30.769230769230067 L75.9375 30.769230769230067 L76.25 33.33333333333394 L76.5625 32.051282051282 L76.875 39.74358974358998 L77.1875 42.30769230769203 L77.5 44.87179487179408 L77.8125 41.02564102564009 L78.125 43.58974358974396 L78.4375 43.58974358974396 L78.75 39.74358974358998 L79.0625 42.30769230769203 L79.375 41.02564102564009 L79.6875 42.30769230769203 L80 41.02564102564009 L80.3125 42.30769230769203 L80.625 39.74358974358998 L80.9375 41.02564102564009 L81.25 38.46153846153804 L81.5625 39.74358974358998 L81.875 38.46153846153804 L82.1875 34.61538461538405 L82.5 34.61538461538405 L82.8125 34.61538461538405 L83.125 37.17948717948792 L83.4375 37.17948717948792 L83.75 38.46153846153804 L84.0625 39.74358974358998 L84.375 39.74358974358998 L84.6875 41.02564102564009 L85 43.58974358974396 L85.3125 41.02564102564009 L85.625 38.46153846153804 L85.9375 39.74358974358998 L86.25 41.02564102564009 L86.5625 38.46153846153804 L86.875 37.17948717948792 L87.1875 35.89743589743599 L87.5 35.89743589743599 L87.8125 37.17948717948792 L88.125 37.17948717948792 L88.4375 37.17948717948792 L88.75 37.17948717948792 L89.0625 39.74358974358998 L89.375 38.46153846153804 L89.6875 38.46153846153804 L90 38.46153846153804"/><path id="day-1" stroke-linejoin="round" stroke="currentColor" stroke-width="4" fill="none" d="M90 67.948717948718 L90 67.948717948718 L90.3125 58.97435897435809 L90.625 64.102564102564 L90.9375 65.38461538461594 L91.25 66.66666666666606 L91.5625 66.66666666666606 L91.875 65.38461538461594 L92.1875 64.102564102564 L92.5 61.538461538461966 L92.8125 64.102564102564 L93.125 69.23076923076992 L93.4375 80.76923076923008 L93.75 71.79487179487198 L94.0625 74.35897435897402 L94.375 70.51282051282004 L94.6875 69.23076923076992 L95 74.35897435897402 L95.3125 73.0769230769221 L95.625 74.35897435897402 L95.9375 76.92307692307608 L96.25 75.64102564102598 L96.5625 73.0769230769221 L96.875 74.35897435897402 L97.1875 74.35897435897402 L97.5 78.20512820512802 L97.8125 78.20512820512802 L98.125 80.76923076923008 L98.4375 74.35897435897402 L98.75 75.64102564102598 L99.0625 75.64102564102598 L99.375 78.20512820512802 L99.6875 76.92307692307608 L100 78.20512820512802 L100.3125 80.76923076923008 L100.625 80.76923076923008 L100.9375 82.051282051282 L101.25 94.87179487179408 L101.5625 89.74358974358998 L101.875 87.17948717948792 L102.1875 87.17948717948792 L102.5 88.46153846153804 L102.8125 87.17948717948792 L103.125 85.897435897436 L103.4375 83.33333333333394 L103.75 83.33333333333394 L104.0625 80.76923076923008 L104.375 100 L104.6875 96.15384615384602 L105 91.0256410256401 L105.3125 87.17948717948792 L105.625 84.61538461538406 L105.9375 87.17948717948792 L106.25 91.0256410256401 L106.5625 89.74358974358998 L106.875 85.897435897436 L107.1875 85.897435897436 L107.5 88.46153846153804 L107.8125 88.46153846153804 L108.125 87.17948717948792 L108.4375 87.17948717948792 L108.75 89.74358974358998 L109.0625 91.0256410256401 L109.375 91.0256410256401 L109.6875 88.46153846153804 L110 87.17948717948792 L110.3125 83.33333333333394 L110.625 85.897435897436 L110.9375 87.17948717948792 L111.25 87.17948717948792 L111.5625 89.74358974358998 L111.875 92.30769230769202 L112.1875 93.58974358974396 L112.5 93.58974358974396 L112.8125 92.30769230769202 L113.125 92.30769230769202 L113.4375 94.87179487179408 L113.75 92.30769230769202 L114.0625 91.0256410256401 L114.375 89.74358974358998 L114.6875 89.74358974358998 L115 91.0256410256401 L115.3125 91.0256410256401 L115.625 91.0256410256401 L115.9375 91.0256410256401 L116.25 91.0256410256401 L116.5625 89.74358974358998 L116.875 89.74358974358998 L117.1875 89.74358974358998 L117.5 89.74358974358998 L117.8125 93.58974358974396 L118.125 94.87179487179408 L118.4375 93.58974358974396 L118.75 93.58974358974396 L119.0625 92.30769230769202 L119.375 91.0256410256401 L119.6875 89.74358974358998 L120 97.43589743589794 L120.3125 98.71794871794806 L120.625 96.15384615384602 L120.9375 94.87179487179408 L121.25 96.15384615384602 L121.5625 97.43589743589794 L121.875 97.43589743589794"/></defs><use xlink:href="#day-0" style="color: #CCCCCC" transform="translate(0, 0)"/><use xlink:href="#day-1" style="color: #FF433D" mask="url(#down-mask)" transform="translate(0, 0)"/><use xlink:href="#day-1" style="color: #1DCC92" mask="url(#up-mask)" transform="translate(0, 0)"/></a>
                </svg>