<svg id="レイヤー_1" data-name="レイヤー 1" xmlns="http://www.w3.org/2000/svg" width="100%" height="100%" viewBox="0 0 318.9 20"><defs><style>.cls-1{fill:#595757;}.cls-2{fill:#005bac;}</style></defs><title>logo</title><path class="cls-1" d="M106.6,2.1h-.2a6.2,6.2,0,0,1-2.6,0h-.2c.1,2.3.2,4.6.2,6.9v4.6c0,2.3-.1,4.7-.2,6.9h.2a6.1,6.1,0,0,1,2.6,0h.2c-.1-2.3-.2-4.6-.2-6.9V9C106.4,6.7,106.5,4.3,106.6,2.1Z" transform="translate(-0.7 -1.3)"/><path class="cls-1" d="M125.7,2h-2c.2,4,.2,9.2.2,13.8-3-3.1-8.1-8.6-12.2-13l-1.2-1.3h-.7c.1,1.2.1,3.8.1,7.2s-.4,10.4-.6,11.7h2.2c-.1-1.1-.2-6.6-.2-9s0-4.1.1-5.1l.9,1c4.3,4.5,8.7,9.2,12.4,13.6h.6c0-1.2-.1-7.1-.1-9.9s.3-7.4.4-9Z" transform="translate(-0.7 -1.3)"/><path class="cls-1" d="M142.9,2H128.9a.1.1,0,0,0,0,.1,3,3,0,0,1,.1.8,2.9,2.9,0,0,1-.1.8.1.1,0,0,0,0,.1h.1l5.6-.3c.1,1.8.1,3.6.1,5.4v4.6c0,2.3-.1,4.7-.2,6.9h.2a6.1,6.1,0,0,1,2.6,0h.2c-.1-2.3-.2-4.6-.2-6.9V9c0-1.8,0-3.6.1-5.4l5.6.3h.1a.1.1,0,0,0,0-.1,2.9,2.9,0,0,1-.1-.8,3,3,0,0,1,.1-.8A.1.1,0,0,0,142.9,2Z" transform="translate(-0.7 -1.3)"/><path class="cls-1" d="M156.3,18.9h-.1a47.4,47.4,0,0,1-7.1.3c0-.5,0-1.7,0-3.9s0-3.1,0-3.7,4.5.1,6.4.2h.2a3.9,3.9,0,0,1-.1-.8,4.2,4.2,0,0,1,.1-.8h-.2c-1.6.1-3.4.3-6.4.3,0-.3,0-.6,0-1s0-1.5,0-2.4,0-1.5.1-2.1,0-.8,0-1.2c2.6,0,4,.1,5.5.2h1.5a3.9,3.9,0,0,1,0-1.6h-9.9c.1,2.1.2,4.6.2,6.9v4.6c0,2.3-.1,4.7-.2,7h10a3.7,3.7,0,0,1-.1-.7,4.3,4.3,0,0,1,.1-.8Z" transform="translate(-0.7 -1.3)"/><path class="cls-1" d="M167.7,13.4l-1.5-1.9c2.1-.4,5.4-1.8,5.4-5.2s-2-4.4-5.7-4.4h-6.3c.1,2.3.2,4.6.2,6.9v4.6c0,2.3-.1,4.7-.2,6.9h.2a6.1,6.1,0,0,1,2.6,0h.2c-.1-2.3-.2-4.6-.2-6.9V11.8h.8a78.6,78.6,0,0,1,6.9,8.8h3.4a.1.1,0,0,0,0-.2C172.3,19.2,169.6,15.9,167.7,13.4ZM162.3,9c0-1.9.1-3.7.2-5.7h2.5c1.2,0,4,.3,4,3.4s-2.6,4-5,4h-1.7Z" transform="translate(-0.7 -1.3)"/><path class="cls-1" d="M193,2h-2c.2,4,.2,9.2.2,13.8-3-3.1-8.1-8.5-12.1-13l-1.2-1.3h-.7c.1,1.2.1,3.8.1,7.2s-.4,10.4-.6,11.7h2.2c-.1-1.1-.2-6.6-.2-9s0-4.1.1-5.1l.9,1c4.3,4.5,8.7,9.2,12.4,13.6h.6c0-1.2-.1-7.1-.1-9.9s.3-7.4.4-9Z" transform="translate(-0.7 -1.3)"/><path class="cls-1" d="M206,18.9h-.1a47.5,47.5,0,0,1-7.1.3c0-.5,0-1.7,0-3.9s0-3.1,0-3.7,4.5.1,6.4.2h.2a4,4,0,0,1-.1-.8,4.2,4.2,0,0,1,.1-.8h-.2c-1.6.1-3.4.3-6.4.3,0-.3,0-.6,0-1s0-1.5,0-2.4,0-1.5.1-2.1,0-.8,0-1.2c2.6,0,4,.1,5.5.2H206a3.9,3.9,0,0,1,0-1.6h-9.9c.1,2.1.2,4.6.2,6.9v4.6c0,2.3-.1,4.7-.2,7h10a3.6,3.6,0,0,1-.1-.7,4.2,4.2,0,0,1,.1-.8Z" transform="translate(-0.7 -1.3)"/><path class="cls-1" d="M223.7,2H209.7a.1.1,0,0,0,0,.1,3,3,0,0,1,.1.8,2.9,2.9,0,0,1-.1.8.1.1,0,0,0,0,.1h.1l5.6-.3c.1,1.8.1,3.6.1,5.4v4.6c0,2.3-.1,4.7-.2,6.9h.2a6.1,6.1,0,0,1,2.6,0h.2c-.1-2.3-.2-4.6-.2-6.9V9c0-1.8,0-3.6.1-5.4l5.6.3h.1a.1.1,0,0,0,0-.1,2.9,2.9,0,0,1-.1-.8,3,3,0,0,1,.1-.8A.1.1,0,0,0,223.7,2Z" transform="translate(-0.7 -1.3)"/><path class="cls-1" d="M246.3,3.1a13.6,13.6,0,0,0-6.9-1.6c-6.6,0-10.6,3.7-10.6,9.8s3.8,9.8,10.5,9.8a26,26,0,0,0,6.9-1.3h.1c0-.4,0-.7,0-1.1s0-.7,0-1.1c0-3.5.1-5,.1-5.4h-2.7v.7c0,.9.1,2,.1,3s0,2.1-.1,3.2a9.8,9.8,0,0,1-4.1.8c-4.9,0-7.9-3.1-7.9-8.3s2.8-8.5,7.7-8.5a7.7,7.7,0,0,1,5.8,2.6h.6a6.5,6.5,0,0,1,.6-2,.2.2,0,0,0,0-.1Z" transform="translate(-0.7 -1.3)"/><path class="cls-1" d="M258.1,13.4l-1.5-1.9c2.1-.4,5.4-1.8,5.4-5.2s-2-4.4-5.7-4.4H250c.1,2.3.2,4.6.2,6.9v4.6c0,2.3-.1,4.7-.2,6.9h.2a6.1,6.1,0,0,1,2.6,0h.2c-.1-2.3-.2-4.6-.2-6.9V11.8h.8a78.5,78.5,0,0,1,6.9,8.8h3.4a.1.1,0,0,0,0-.2C262.7,19.2,260,15.9,258.1,13.4ZM252.7,9c0-1.9.1-3.7.2-5.7h2.5c1.2,0,4,.3,4,3.4s-2.6,4-5,4h-1.7Z" transform="translate(-0.7 -1.3)"/><path class="cls-1" d="M274.6,1.6c-6.2,0-10.2,3.8-10.2,9.8s4,9.8,10.2,9.8,10.2-3.8,10.2-9.8S280.8,1.6,274.6,1.6Zm0,18.2c-4.6,0-7.3-3.1-7.3-8.5s2.6-8.5,7.3-8.5,7.3,3.1,7.3,8.5S279.3,19.8,274.6,19.8Z" transform="translate(-0.7 -1.3)"/><path class="cls-1" d="M303.7,1.9h-2c.2,1,.2,3.6.2,8.7,0,3.5,0,8.7-5.7,8.7s-5.8-4.6-5.8-8.3.2-7.6.3-9.2h-2.8v.7c.1,1.6.1,3.7.1,6.2,0,.6,0,1.2-.1,1.9s-.1,1.5-.1,2.4c0,5.3,2.5,7.8,7.8,7.8s7.7-2.9,7.8-7.9.3-8.5.5-11.1h-.2Z" transform="translate(-0.7 -1.3)"/><path class="cls-1" d="M313.6,1.9h-6.1c.1,2.3.2,4.6.2,6.9v4.6c0,2.3-.1,4.7-.2,6.9h.2a6.1,6.1,0,0,1,2.6,0h.2c-.1-2.3-.2-4.6-.2-6.9V12.3h2c3.6,0,7.4-1.5,7.4-5.8S315.1,1.9,313.6,1.9Zm3.3,4.8c0,3.8-3.1,4.3-4.9,4.3l-1.8-.2V3.2h2.3C315.2,3.2,316.9,3.8,316.9,6.8Z" transform="translate(-0.7 -1.3)"/><path class="cls-2" d="M49.6,19.8h1.5l5.5-9,3,10.3h6L59.5,1.7H57L49.6,13.2,42.2,1.7H39.7L33.6,21h6l3-10.3,5.5,9h1.5Z" transform="translate(-0.7 -1.3)"/><path class="cls-2" d="M33.9,10.2H17.3a1.6,1.6,0,1,0,0,3.1h9.8c-1.2,3.1-5.1,5.3-9.8,5.3S7.2,15.3,7.2,11.3s4.5-7.2,10.1-7.2A12.1,12.1,0,0,1,25,6.6h6.9c-2.9-3-8.3-5.1-14.5-5.1C8.2,1.3.7,5.8.7,11.3s7.5,10,16.7,10S34,16.9,34,11.3A6.1,6.1,0,0,0,33.9,10.2Z" transform="translate(-0.7 -1.3)"/><path class="cls-2" d="M81.9,1.3c-9.2,0-16.7,4.5-16.7,10s7.5,10,16.7,10,16.7-4.5,16.7-10S91.1,1.3,81.9,1.3Zm0,17.2c-5.6,0-10.1-3.2-10.1-7.2s4.5-7.2,10.1-7.2S92,7.4,92,11.3,87.5,18.6,81.9,18.6Z" transform="translate(-0.7 -1.3)"/></svg>