<?xml version="1.0" encoding="UTF-8"?>
<svg width="205px" height="40px" viewBox="0 0 205 40" version="1.1" xmlns="http://www.w3.org/2000/svg" xmlns:xlink="http://www.w3.org/1999/xlink">
    <!-- Generator: Sketch 46.2 (44496) - http://www.bohemiancoding.com/sketch -->
    <title>logo-gingerweb_white</title>
    <desc>Created with Sketch.</desc>
    <defs></defs>
    <g id="Symbols" stroke="none" stroke-width="1" fill="none" fill-rule="evenodd">
        <g id="logo-/-2-white" fill="#FFFFFF">
            <g id="logo-gingerweb_white">
                <path d="M91.6015642,22.5868493 L91.6015642,23.9868493 L95.6401738,23.9868493 L95.6401738,27.1156164 C95.6401738,28.8547945 95.577139,30.6619178 95.4718984,31.9506849 C95.4433957,32.3019178 95.4258556,32.6410959 95.4088636,32.9676712 C95.3611765,33.9057534 95.3200668,34.7150685 95.0322995,35.419726 C94.6469652,36.3638356 94.0911631,37.1178082 93.381885,37.6591781 C92.7137166,38.1687671 92.0784358,38.4630137 90.8117112,38.4630137 C89.1766444,38.4630137 88.1834358,38.1287671 87.1957086,37.6273973 C86.1005481,37.0706849 85.5145989,36.0986301 84.8623262,34.8843836 C84.1629144,33.5868493 83.6410963,31.8449315 83.3105749,29.7084932 C82.9762166,27.5550685 82.8068449,24.8520548 82.8068449,21.6750685 L82.8068449,17.0789041 C82.8068449,15.1254795 82.9060561,13.1720548 83.1011898,11.2728767 C83.2946791,9.39616438 83.7057754,7.70356164 84.3251604,6.24383562 C84.9379679,4.80054795 85.4970588,3.62520548 86.6349733,2.72876712 C87.8337299,1.78465753 89.0423529,1.4 90.8117112,1.39945205 L90.9377807,1.39835616 C93.279385,1.40054795 94.4485428,2.34849315 95.7870722,4.09643836 C97.2176872,5.96821918 98.3079144,8.63561644 99.0270588,12.0230137 L99.0829679,12.2832877 L100.955374,12.2832877 L100.955374,0.77369863 L99.6672727,0.77369863 L99.5921791,1 C99.4436364,1.45589041 99.296738,1.73205479 99.2134225,1.80767123 C99.1668316,1.85205479 99.0139037,1.95452055 98.5929412,1.95452055 C98.2679011,1.95452055 97.853516,1.85589041 97.3607487,1.66136986 C96.8263235,1.45150685 96.2140642,1.22958904 95.5409626,1.00109589 L95.525615,0.996164384 C94.8541578,0.768219178 94.1267914,0.550136986 93.3040508,0.328767123 C92.4878877,0.110684932 91.6339037,0 90.7651203,0 C88.7918583,0 86.6092112,0.523287671 84.7757219,1.43616438 C83.2064305,2.2169863 80.975,3.55616438 79.2626471,5.50246575 C77.7273396,7.24931507 76.4529412,9.37863014 75.473984,11.8323288 C74.4933824,14.2909589 73.9973262,17.0690411 73.9973262,20.089863 C73.9973262,22.8657534 74.4445989,25.4816438 75.3276337,27.8657534 C76.2106684,30.2493151 77.4017513,32.3523288 78.8690909,34.1161644 C80.159385,35.6668493 82.0515241,37.12 84.3416043,38.3189041 C86.2140107,39.300274 88.5589037,39.8630137 90.7755348,39.8630137 C92.0992647,39.8630137 93.2530749,39.6871233 94.2062701,39.340274 C95.1232888,39.0060274 95.9558957,38.6350685 96.683262,38.2356164 C97.3870588,37.849863 98.0426203,37.4887671 98.6488503,37.1534247 C99.2561765,36.820274 99.5428476,36.6942466 100.138663,36.6920548 C100.412179,36.6931507 100.639652,36.7654795 100.857807,36.9232877 C100.98881,37.0136986 101.154345,37.3523288 101.206417,37.7671233 L101.245334,38.0520548 L102.623877,38.0520548 L102.623877,23.9868493 L105.374933,23.9868493 L105.374933,22.5868493 L91.6015642,22.5868493 Z" id="Fill-36"></path>
                <path d="M66.9571658,0.547945205 L66.9571658,2.16876712 L67.5825802,2.19616438 C68.4195722,2.22958904 69.0455348,2.41808219 69.3935963,2.74027397 C69.7635829,3.08164384 69.9779011,3.51287671 70.067246,4.09534247 C70.1691979,4.76219178 70.225107,5.93369863 70.225107,7.39452055 L70.225107,24.6893151 C67.0547326,20.0816438 53.7028743,0.695890411 53.7028743,0.694794521 L53.6036631,0.552876712 L43.302139,0.552876712 L43.302139,2.09041096 L43.8376604,2.18794521 C44.3616711,2.28273973 44.9404947,2.54849315 45.5560428,2.97808219 C46.1858422,3.41753425 47.0551738,4.40219178 47.3445856,4.80712329 C47.440508,4.93972603 47.7173128,5.34356164 47.9414973,5.67123288 L48.1651337,5.99726027 L48.1651337,30.6180822 C48.1656818,32.2756164 48.0757888,33.5249315 47.8987433,34.329863 C47.7430749,35.0389041 47.4903877,35.5610959 47.2031684,35.7627397 C46.863877,36.0049315 46.3349332,36.1506849 45.6716979,36.1824658 L45.0534091,36.2153425 L45.0534091,37.8115068 L53.9665241,37.8115068 L53.9665241,36.2131507 L53.3433021,36.1824658 C52.3577674,36.1369863 51.7043984,35.8569863 51.3431818,35.3254795 C51.2297193,35.1594521 51.0658289,34.7068493 50.9452406,33.930411 L50.9425,33.9134247 C50.8306818,33.209863 50.7747727,32.090411 50.7747727,30.5852055 L50.7747727,9.79561644 C55.1302005,16.089863 62.1478877,26.2509589 66.4019118,32.409863 C68.3017246,35.16 69.6501203,37.1128767 69.964746,37.5665753 L70.1149332,37.8147945 L72.8352941,37.8082192 L72.8352941,5.65753425 C72.834746,4.67068493 72.9388904,3.88876712 73.1362166,3.39561644 C73.3061364,2.97643836 73.5116845,2.72547945 73.7917781,2.57643836 C74.1392914,2.39013699 74.6775535,2.27671233 75.3216043,2.19287671 L75.888369,2.11780822 L75.888369,0.547945205 L66.9571658,0.547945205 Z" id="Fill-37"></path>
                <path d="M40.7829412,2.74630137 C41.2680348,2.33643836 41.8271257,2.14520548 42.5413369,2.14410959 L43.1925134,2.14410959 L43.1925134,0.547945205 L29.5989305,0.547945205 L29.5989305,2.14410959 L30.250107,2.14410959 C30.9281417,2.14465753 31.5179278,2.33315068 32.0035695,2.70575342 C32.428369,3.02849315 32.6536497,3.73808219 32.6520053,4.75890411 L32.6520053,33.5326027 C32.6520053,34.5128767 32.4256283,35.2 31.9783556,35.5764384 L31.9509492,35.6 C31.4658556,36 30.9243048,36.1873973 30.2506551,36.1879452 L29.5989305,36.1879452 L29.5989305,37.8032877 L43.1925134,37.8032877 L43.1925134,36.1879452 L42.541885,36.1879452 C41.9049599,36.1873973 41.362861,35.9852055 40.8366578,35.5517808 L40.8339171,35.5545205 L40.8361096,35.5517808 C40.3614305,35.1616438 40.120254,34.4821918 40.1197059,33.5326027 L40.1197059,4.75890411 C40.1197059,3.79342466 40.3427941,3.11616438 40.7829412,2.74630137" id="Fill-38"></path>
                <path d="M126.570508,31.7654795 L126.42361,32.2136986 C126.181885,32.9463014 125.885896,33.5720548 125.542767,34.0728767 C125.22869,34.5315068 124.789639,34.8980822 124.237126,35.1605479 C123.66762,35.4306849 122.912848,35.5671233 121.989799,35.5671233 L115.384305,35.5671233 C114.603222,35.5671233 114.165267,35.350137 113.937246,35.0509589 C113.580963,34.5835616 113.568904,33.9550685 113.568904,33.2580822 L113.568904,20.4843836 L120.742807,20.4843836 C121.19008,20.4843836 121.631324,20.52 122.053382,20.5917808 L122.19754,20.6065753 C122.302781,20.6065753 122.488596,20.6323288 122.779104,20.7572603 C122.985749,20.8465753 123.235147,21.070137 123.48016,21.3879452 C123.729011,21.7068493 123.911537,22.220274 124.008556,22.8728767 L124.091324,23.4279452 L125.590455,23.4279452 L125.590455,15.2767123 L124.058436,15.2767123 L124.004719,15.8668493 C123.906604,16.9035616 123.586497,17.5063014 122.998356,17.7632877 C122.272634,18.08 121.428516,18.2405479 120.490668,18.2405479 L113.568904,18.2405479 L113.568904,2.79068493 L121.206524,2.79068493 C123.834251,2.80273973 125.347086,4.17863014 125.3575,6.56383562 L125.3575,7.21479452 L126.972286,7.21479452 L126.972286,0.547945205 L103.048128,0.547945205 L103.048128,2.19890411 L104.086832,2.19890411 C104.849278,2.20164384 105.297099,2.45917808 105.640227,2.89534247 C105.978971,3.32712329 106.100655,4.17479452 106.101203,4.97972603 L106.101203,33.5156164 C106.101203,34.4876712 105.880307,35.1758904 105.444545,35.5616438 C104.985762,35.9682192 104.529719,36.1742466 104.08738,36.1742466 L103.048128,36.1742466 L103.048128,37.810411 L126.851698,37.810411 L128.11623,31.7654795 L126.570508,31.7654795 Z" id="Fill-39"></path>
                <path d="M17.6047861,22.5863014 L17.6047861,23.9857534 L21.6428476,23.9857534 L21.6428476,27.1150685 C21.6428476,28.8580822 21.580361,30.6652055 21.4751203,31.949589 C21.4460695,32.3008219 21.4290775,32.6394521 21.4120856,32.9654795 C21.3643984,33.9046575 21.3221925,34.7156164 21.0349733,35.4191781 C20.6501872,36.3632877 20.094385,37.1167123 19.3840107,37.6586301 C18.7163904,38.1682192 18.0822059,38.4624658 16.814385,38.4624658 C15.1793182,38.4624658 14.1866578,38.1282192 13.1989305,37.6268493 C12.1043182,37.0706849 11.5178209,36.0980822 10.8655481,34.8838356 C10.1666845,33.5863014 9.64431818,31.8449315 9.31379679,29.7084932 C8.97889037,27.5523288 8.80897059,24.8493151 8.80897059,21.6745205 L8.80897059,17.0783562 C8.80897059,15.1216438 8.90872995,13.1687671 9.10441176,11.2723288 C9.29735294,9.39616438 9.70954545,7.70410959 10.3283824,6.24383562 C10.9411898,4.79945205 11.5008289,3.62410959 12.6376471,2.72821918 C13.8369519,1.78465753 15.046123,1.39890411 16.814385,1.39835616 L16.9404545,1.39835616 C19.2820588,1.4 20.4512166,2.34794521 21.7902941,4.09589041 C23.220361,5.96767123 24.3111364,8.63506849 25.0302807,12.0219178 L25.0856417,12.2832877 L26.9591444,12.2832877 L26.9591444,0.773150685 L25.672139,0.773150685 L25.5954011,0.999452055 C25.4463102,1.45534247 25.2999599,1.73150685 25.2160963,1.80767123 C25.1695053,1.85150685 25.0171257,1.9539726 24.595615,1.9539726 C24.2705749,1.9539726 23.8561898,1.85534247 23.3628743,1.66082192 C22.8257086,1.44931507 22.208516,1.22575342 21.529385,0.996164384 C20.8595722,0.768767123 20.132754,0.550136986 19.3072727,0.328219178 C18.4911096,0.110684932 17.6371257,0 16.7688904,0 C14.7950802,0 12.611885,0.523287671 10.7783957,1.43561644 C9.20800802,2.2169863 6.97657754,3.55726027 5.26641711,5.50191781 C3.73110963,7.24712329 2.4561631,9.3769863 1.47665775,11.8312329 C0.496604278,14.290411 0,17.0684932 0,20.0893151 C0,22.8663014 0.447820856,25.4827397 1.33030749,27.8646575 C2.21279412,30.2476712 3.40442513,32.3506849 4.87286096,34.1161644 C6.50299465,36.0750685 8.74812834,37.4827397 10.3437299,38.3183562 C12.2161364,39.299726 14.5610294,39.8624658 16.7787567,39.8624658 C18.1019385,39.8624658 19.2562968,39.6865753 20.2089439,39.340274 C21.1292513,39.0049315 21.9624064,38.6328767 22.686484,38.2356164 C23.3902807,37.8493151 24.0463904,37.4876712 24.6515241,37.1534247 C25.2588503,36.819726 25.5444251,36.6936986 26.141885,36.6915068 C26.4137567,36.6920548 26.6412299,36.7649315 26.8615775,36.9227397 C26.9920321,37.0126027 27.1575668,37.3523288 27.209639,37.7654795 L27.2474599,38.0515068 L28.6276471,38.0515068 L28.6276471,23.9857534 L31.3781551,23.9857534 L31.3781551,22.5863014 L17.6047861,22.5863014 Z" id="Fill-40"></path>
                <path d="M158.006217,38.0438356 C158.007313,38.0306849 158.007313,38.0164384 158.007313,38.0027397 C158.000735,37.7041096 157.811631,37.459726 157.628008,37.2465753 C157.203209,36.669589 156.74607,36.1090411 156.262072,35.5150685 C154.907099,33.8547945 153.222701,31.7890411 151.160094,27.9906849 L151.159545,27.989589 C150.400936,26.5863014 149.29865,24.1561644 147.885027,20.7720548 C147.744158,20.4158904 147.561083,19.9457534 147.396644,19.4756164 C147.384037,19.4334247 147.371979,19.3961644 147.364305,19.3594521 L147.262353,18.929863 C147.379652,18.8942466 147.504626,18.8564384 147.635628,18.8169863 C148.528529,18.5490411 149.639037,18.2164384 150.361471,17.7764384 L150.391618,17.7583562 C151.535561,17.0021918 152.52877,15.6613699 152.984813,14.2586301 C153.406872,12.949589 153.558155,11.1835616 153.559799,10.0684932 C153.555963,7.36164384 152.703075,3.85643836 150.319265,2.13424658 C149.737701,1.71616438 148.793275,1.16931507 148.042888,1.00054795 C146.689011,0.703561644 144.61873,0.547945205 143.273075,0.547945205 L127.714452,0.547945205 L127.714452,1.57972603 L128.389198,1.63068493 L128.667099,1.67123288 C130.536217,1.9939726 131.518463,3.16 131.58369,5.1309589 L131.58369,33.3112329 C131.492152,35.2712329 130.538957,36.380274 128.673128,36.7013699 L128.550896,36.72 C128.472513,36.730411 128.394679,36.7408219 128.315749,36.749589 L128.266417,36.7556164 L128.189131,36.7627397 C128.088275,36.7753425 127.99893,36.7912329 127.889853,36.8049315 L127.821337,36.8109589 L127.713904,36.8230137 L127.713904,37.8246575 L142.377433,37.8246575 L142.377433,36.7923288 L142.065548,36.7764384 C139.688864,36.6356164 138.51861,35.5030137 138.487914,33.3161644 L138.493396,18.1994521 L138.487914,17.9906849 L138.487914,2.26191781 C138.827754,2.17972603 139.279412,2.13150685 139.734358,2.13150685 L139.813837,2.13205479 C141.077821,2.14410959 142.988048,2.16164384 144.202152,2.83671233 C145.49135,3.5430137 146.390281,5.2739726 146.768489,6.54136986 C147.139572,7.77917808 147.327032,9.06191781 147.327032,10.3528767 C147.328676,12.0619178 147.085307,13.7934247 146.708743,14.7638356 C146.303128,15.809863 145.670588,16.590137 144.775495,17.149589 L144.776043,17.150137 C144.668061,17.2164384 144.55734,17.2794521 144.45484,17.3326027 C143.705,17.6526027 142.819225,17.8487671 141.822727,17.9167123 L141.514679,17.9369863 L141.514679,21.8745205 L141.594706,21.9687671 C141.622112,21.9994521 141.883021,22.3210959 142.826898,24.1183562 C144.639011,28.0131507 146.548142,31.2860274 148.118529,33.2032877 L148.111952,33.2032877 L148.408489,33.5484932 C150.700762,36.209863 153.912246,38.0186301 157.19992,38.5084932 C157.336404,38.5380822 157.429037,38.5380822 157.478369,38.5523288 L157.515094,38.5545205 C157.694332,38.5545205 157.870281,38.4394521 157.942086,38.2783562 C157.942086,38.2783562 157.978262,38.2153425 157.994706,38.1221918 C158.010602,38.029589 158.006217,38.0438356 158.006217,38.0438356" id="Fill-41"></path>
                <path d="M173.19869,31.2345205 L176.995575,13.2684932 L173.596631,13.2684932 L171.571297,24.4745205 L169.293275,13.2684932 L166.21992,13.2684932 L164.013703,24.4745205 L161.844211,13.2684932 L158.409091,13.2684932 L162.242152,31.2345205 L165.424037,31.2345205 L167.702059,20.2093151 L170.016805,31.2345205 L173.19869,31.2345205 Z M190.08488,22.8120548 L190.08488,19.8476712 C190.08488,17.0279452 189.759291,15.7265753 188.710722,14.569863 C187.770134,13.4854795 186.324171,12.9073973 184.479719,12.9073973 C182.779973,12.9073973 181.370187,13.4131507 180.393422,14.3528767 C179.2725,15.4378082 178.946912,16.6306849 178.946912,19.4860274 L178.946912,24.8361644 C178.946912,27.2580822 179.2725,28.5956164 180.068382,29.7161644 C180.972246,30.9452055 182.527286,31.5961644 184.588249,31.5961644 C186.793917,31.5961644 188.457487,30.8005479 189.36135,29.3183562 C189.97635,28.3786301 190.08488,27.5835616 190.121056,25.0169863 L186.757741,25.0169863 C186.757741,26.2460274 186.721564,26.5715068 186.613035,26.9326027 C186.360348,27.9813699 185.636818,28.5232877 184.588249,28.5232877 C182.852326,28.5232877 182.310227,27.5473973 182.310227,24.4021918 L182.310227,22.8120548 L190.08488,22.8120548 Z M186.721564,19.8476712 L182.310227,19.8476712 L182.310227,18.8717808 C182.310227,16.7386301 182.960856,15.8712329 184.515896,15.8712329 C186.070936,15.8712329 186.721564,16.7386301 186.721564,18.8717808 L186.721564,19.8476712 Z M193.122059,31.2345205 L196.484826,31.2345205 L196.484826,29.4630137 C197.967513,30.8728767 199.160789,31.4876712 200.462594,31.4876712 C201.764398,31.4876712 202.776791,30.8367123 203.355615,29.6438356 C203.897714,28.4147945 204.078596,27.149589 204.078596,24.4021918 L204.078596,20.1008219 C204.078596,17.3172603 203.897714,16.0882192 203.355615,14.8591781 C202.776791,13.6663014 201.764398,13.0153425 200.462594,13.0153425 C199.160789,13.0153425 197.967513,13.630137 196.484826,15.04 L196.484826,7.12328767 L193.122059,7.12328767 L193.122059,31.2345205 Z M196.484826,16.8832877 C197.38869,16.2328767 198.076043,15.979726 198.835201,15.979726 C199.522553,15.979726 200.137005,16.3413699 200.390241,16.9194521 C200.679652,17.5342466 200.715829,18.0038356 200.715829,19.8838356 L200.715829,24.6191781 C200.715829,26.4991781 200.679652,26.9687671 200.390241,27.5835616 C200.137005,28.1616438 199.522553,28.5232877 198.835201,28.5232877 C198.076043,28.5232877 197.38869,28.270137 196.484826,27.619726 L196.484826,16.8832877 Z" id="Stroke-81"></path>
                <polygon id="Stroke-86" fill-rule="nonzero" points="162 37 204 37 204 35 162 35"></polygon>
            </g>
        </g>
    </g>
</svg>