<svg xmlns="http://www.w3.org/2000/svg" width="120" height="40"><title>Clarivate logo</title><g fill="#fff"><path d="M21.725 12.132c1.198 1.45 2.176 3.06 2.902 4.763-3.218 3.344-7.35 5.773-11.987 6.908-1.136-1.514-2.02-3.154-2.65-4.92 6.56-1.073 10.22-4.985 11.735-6.75z"/><path d="M12.734.492c-1.135 1.514-2.05 3.154-2.713 4.89 5.46.977 9.15 3.753 11.705 6.78 1.198-1.45 2.176-3.06 2.902-4.762C21.44 4.056 17.34 1.627 12.734.492zM4.406 19.04c-1.262-4.48-1.293-9.116.032-13.817 1.23-.126 3.154-.284 5.583.127-1.797 4.826-1.48 9.62-.062 13.532-1.83.347-3.817.38-5.552.158zM31.882 13.14c0-4.92 3.25-7.76 7.003-7.76 1.893 0 3.438.916 4.448 1.925L41.566 9.45c-.757-.694-1.545-1.167-2.618-1.167-2.02 0-3.628 1.798-3.628 4.764 0 3.028 1.42 4.826 3.597 4.826 1.198 0 2.145-.6 2.87-1.388l1.767 2.082c-1.23 1.42-2.87 2.177-4.795 2.177-3.723 0-6.878-2.62-6.878-7.603zM44.88 16.96V4.56h3.342v12.556c0 .694.316.946.6.946.126 0 .22 0 .41-.03l.41 2.46c-.38.157-.946.283-1.672.283-2.334-.03-3.09-1.546-3.09-3.817zm5.424.38c0-2.367 1.893-3.66 6.34-4.102-.062-1.01-.535-1.64-1.766-1.64-.946 0-1.892.378-2.965 1.01l-1.2-2.21c1.42-.85 3.03-1.482 4.828-1.482 2.87 0 4.48 1.64 4.48 5.08v6.434h-2.713l-.22-1.167h-.095c-.946.853-1.987 1.42-3.28 1.42-2.114.064-3.408-1.45-3.408-3.343zm6.34-.127v-1.987c-2.365.316-3.122 1.01-3.122 1.86 0 .727.505 1.074 1.293 1.074.757 0 1.262-.38 1.83-.946zM62.26 9.2h2.713l.22 1.987h.095c.82-1.514 2.05-2.24 3.218-2.24.63 0 1.01.095 1.325.222l-.536 2.87c-.41-.126-.757-.19-1.23-.19-.85 0-1.892.537-2.46 2.083v6.53H62.26zm8.328-3.407c0-1.008.82-1.734 1.924-1.734 1.136 0 1.924.694 1.924 1.735 0 1.042-.788 1.736-1.924 1.736-1.104.032-1.924-.694-1.924-1.735zm.284 3.408h3.344V20.46h-3.344zm4.448 0h3.375l1.45 5.3c.285 1.104.6 2.302.884 3.47h.094c.284-1.168.568-2.366.852-3.47l1.482-5.3h3.218l-3.69 11.262h-3.85zm11.892 8.14c0-2.367 1.893-3.66 6.34-4.102-.062-1.01-.536-1.64-1.766-1.64-.946 0-1.893.378-2.965 1.01l-1.198-2.21c1.42-.85 3.028-1.482 4.827-1.482 2.87 0 4.478 1.64 4.478 5.08v6.434h-2.713l-.22-1.167H93.9c-.947.853-1.988 1.42-3.28 1.42-2.115.064-3.408-1.45-3.408-3.343zm6.34-.127v-1.987c-2.365.316-3.122 1.01-3.122 1.86 0 .727.504 1.074 1.293 1.074.726 0 1.23-.38 1.83-.946zm5.93-.82v-4.574h-1.545v-2.46l1.735-.126.38-2.997h2.775V9.23h2.713v2.618h-2.713v4.51c0 1.263.568 1.8 1.45 1.8.38 0 .758-.127 1.073-.222l.537 2.43c-.6.188-1.42.41-2.492.41-2.84-.032-3.912-1.767-3.912-4.386zm6.94-1.545c0-3.66 2.62-5.9 5.3-5.9 3.218 0 4.795 2.335 4.795 5.395 0 .6-.063 1.2-.126 1.483h-6.75c.285 1.64 1.42 2.397 2.934 2.397.852 0 1.61-.252 2.43-.757l1.103 2.02c-1.167.787-2.65 1.26-4.006 1.26-3.185 0-5.677-2.176-5.677-5.898zm7.288-1.23c0-1.262-.536-2.146-1.893-2.146-1.04 0-1.956.693-2.176 2.144zM35.92 25.222h2.27l3.534 10.883h-2.02l-.85-2.965h-3.66l-.85 2.934h-1.957zm-.284 6.404h2.776l-.38-1.325c-.346-1.136-.66-2.398-.977-3.596h-.063c-.284 1.198-.6 2.43-.978 3.596zm6.877-3.69h1.577l.126 1.103h.063c.725-.726 1.576-1.293 2.68-1.293 1.736 0 2.524 1.167 2.524 3.25v5.11H47.56v-4.86c0-1.355-.38-1.86-1.293-1.86-.726 0-1.168.347-1.862 1.01v5.71H42.48v-8.17zm8.233 5.96c0-1.734 1.45-2.65 4.795-3.027-.03-.852-.378-1.61-1.482-1.61-.788 0-1.577.38-2.303.79l-.694-1.294c.885-.568 2.052-1.073 3.345-1.073 2.02 0 3.03 1.262 3.03 3.534v4.826h-1.58l-.125-.883h-.063c-.726.63-1.577 1.104-2.524 1.104-1.42.03-2.397-.947-2.397-2.366zm4.795 0v-1.83c-2.24.285-2.964.853-2.964 1.673 0 .726.504 1.04 1.167 1.04.694 0 1.167-.314 1.798-.882zm3.565.096V24.34h1.925v9.747c0 .473.22.63.41.63.094 0 .157 0 .284-.03l.252 1.42c-.22.094-.568.157-1.01.157-1.356.03-1.86-.852-1.86-2.27zm3.313 5.268l.347-1.482c.157.063.378.126.567.126.852 0 1.357-.568 1.64-1.388l.16-.505-3.22-8.074h1.957l1.418 4.006c.22.726.473 1.514.726 2.303h.063c.19-.757.41-1.577.63-2.303l1.23-4.006H69.8l-2.966 8.517c-.694 1.83-1.514 2.997-3.312 2.997-.473 0-.79-.063-1.104-.19zm8.927-5.93v-3.88h-1.167v-1.42l1.262-.094.22-2.24h1.61v2.24h2.08v1.514h-2.08v3.88c0 .978.378 1.42 1.135 1.42.284 0 .63-.095.85-.19l.348 1.42c-.44.158-1.01.284-1.67.284-1.894.03-2.588-1.167-2.588-2.934zm4.89-7.918c0-.662.504-1.104 1.167-1.104.662 0 1.167.442 1.167 1.104 0 .63-.506 1.073-1.168 1.073-.663 0-1.168-.442-1.168-1.073zm.22 2.524h1.924v8.17h-1.925zm3.155 4.07c0-2.714 1.924-4.29 4.1-4.29 1.042 0 1.8.41 2.398.914l-.946 1.262c-.442-.38-.852-.6-1.357-.6-1.325 0-2.24 1.073-2.24 2.713 0 1.64.884 2.713 2.177 2.713.63 0 1.2-.315 1.672-.694l.79 1.262c-.758.662-1.736 1.01-2.65 1.01-2.21 0-3.944-1.578-3.944-4.29zm7.16 3.154l.884-1.23c.725.567 1.42.914 2.27.914.884 0 1.294-.41 1.294-.978 0-.694-.883-.978-1.735-1.325-1.072-.41-2.302-1.008-2.302-2.364 0-1.42 1.136-2.43 2.966-2.43 1.135 0 2.05.474 2.713.978l-.885 1.168c-.567-.41-1.135-.694-1.798-.694-.82 0-1.198.378-1.198.883 0 .663.82.884 1.702 1.2 1.104.41 2.334.946 2.334 2.492 0 1.388-1.104 2.523-3.186 2.523-1.072 0-2.27-.504-3.06-1.135z"/></g></svg>