<?xml version="1.0" encoding="UTF-8"?>
<svg width="383px" height="30px" viewBox="0 0 383 30" version="1.1" xmlns="http://www.w3.org/2000/svg" xmlns:xlink="http://www.w3.org/1999/xlink">
    <!-- Generator: Sketch 47.1 (45422) - http://www.bohemiancoding.com/sketch -->
    <title>jcr_logo white@1x</title>
    <desc>Created with Sketch.</desc>
    <defs></defs>
    <g id="Page-1" stroke="none" stroke-width="1" fill="none" fill-rule="evenodd">
        <g id="jcr_logo-white" fill="#FFFFFF">
            <path d="M0.324,24.0696421 L3.60343381,24.0696421 L3.60343381,5.58042051 L0.324,5.58042051 L0.324,24.0696421 Z M8.01370686,24.0696421 L11.2648697,24.0696421 L11.2648697,14.3726956 C12.4239799,13.2418564 13.2155674,12.6481658 14.4312196,12.6481658 C15.9578525,12.6481658 16.6080851,13.4962952 16.6080851,15.7862447 L16.6080851,24.0696421 L19.8592479,24.0696421 L19.8592479,15.36218 C19.8592479,11.8565783 18.5587828,9.84933865 15.5903298,9.84933865 C13.6961741,9.84933865 12.282625,10.838823 11.0387018,12.0544752 L10.9256179,12.0544752 L10.6994501,10.1885904 L8.01370686,10.1885904 L8.01370686,24.0696421 Z M31.5068921,24.4088939 C33.8816546,24.4088939 35.8323522,23.4476806 37.3307142,21.7231507 L35.5779134,19.6593691 C34.5318871,20.7902083 33.259693,21.5535248 31.6199761,21.5535248 C28.5101681,21.5535248 26.5311995,19.0091365 26.5311995,14.7967603 C26.5311995,10.6409261 28.679794,8.09653783 31.704789,8.09653783 C33.146609,8.09653783 34.2491773,8.74677039 35.2103907,9.70798375 L36.9631915,7.58766017 C35.8040813,6.343737 33.9381965,5.24116874 31.6199761,5.24116874 C26.9552642,5.24116874 23.1669527,8.83158333 23.1669527,14.8815733 C23.1669527,21.0163762 26.8421803,24.4088939 31.5068921,24.4088939 Z M40.1295414,24.0696421 L43.3807042,24.0696421 L43.3807042,10.1885904 L40.1295414,10.1885904 L40.1295414,24.0696421 Z M41.7692583,7.75728605 C42.9283685,7.75728605 43.7764979,6.99396956 43.7764979,5.91967228 C43.7764979,4.81710402 42.9283685,4.05378753 41.7692583,4.05378753 C40.610148,4.05378753 39.7620186,4.81710402 39.7620186,5.91967228 C39.7620186,6.99396956 40.610148,7.75728605 41.7692583,7.75728605 Z M52.4274181,24.4088939 C53.5299864,24.4088939 54.4911998,24.1544551 55.2545163,23.9000163 L54.6890966,21.4969829 C54.2933029,21.6666087 53.7278833,21.8079637 53.2472766,21.8079637 C51.9185405,21.8079637 51.2965789,21.0163762 51.2965789,19.3766593 L51.2965789,12.7612497 L54.8304515,12.7612497 L54.8304515,10.1885904 L51.2965789,10.1885904 L51.2965789,6.40027896 L48.5825647,6.40027896 L48.186771,10.1885904 L46.0381764,10.3299453 L46.0381764,12.7612497 L48.0171451,12.7612497 L48.0171451,19.3766593 C48.0171451,22.3733833 49.2045263,24.4088939 52.4274181,24.4088939 Z M63.2269329,24.4088939 C59.3820795,24.4088939 56.3853555,21.7231507 56.3853555,17.1432518 C56.3853555,12.6198948 59.5234344,9.84933865 62.7745972,9.84933865 C66.5346377,9.84933865 68.5136064,12.5633528 68.5136064,16.4364772 C68.5136064,17.0584388 68.4570644,17.6804004 68.3722515,18.0196522 L59.5517054,18.0196522 C59.8344152,20.4792275 61.4175901,21.8927766 63.6509976,21.8927766 C64.8383788,21.8927766 65.8561342,21.5252538 66.8738895,20.8750213 L67.9764577,22.9105319 C66.6477216,23.7869323 64.9797337,24.4088939 63.2269329,24.4088939 Z M59.5234344,15.8145157 L65.6865083,15.8145157 C65.6865083,13.6659211 64.7535659,12.365456 62.8594102,12.365456 C61.2196933,12.365456 59.8061442,13.5811082 59.5234344,15.8145157 Z M75.4965387,24.4088939 C79.0021404,24.4088939 80.8962961,22.4864672 80.8962961,20.1117048 C80.8962961,17.5107745 78.8042435,16.6061031 76.9100878,15.8993286 C75.4117258,15.36218 74.0264477,14.9381152 74.0264477,13.835547 C74.0264477,12.9591466 74.6766803,12.308914 76.0619583,12.308914 C77.1645266,12.308914 78.1540109,12.7895207 79.1152243,13.4962952 L80.6135863,11.5173265 C79.482747,10.6409261 77.9278431,9.84933865 76.0054164,9.84933865 C72.8956085,9.84933865 70.9449108,11.5738685 70.9449108,14.0051729 C70.9449108,16.3233933 73.0086924,17.3694196 74.8463061,18.0479232 C76.3163972,18.6133428 77.8147592,19.1222204 77.8147592,20.2813307 C77.8147592,21.242544 77.1079846,21.9493186 75.6096226,21.9493186 C74.1960736,21.9493186 73.0086924,21.355628 71.7647692,20.3944146 L70.2381362,22.4864672 C71.5951433,23.5890355 73.602383,24.4088939 75.4965387,24.4088939 Z M93.5899666,24.4088939 C97.463091,24.4088939 99.1028079,21.6383378 99.1028079,18.274091 L99.1028079,5.58042051 L95.8233741,5.58042051 L95.8233741,17.9913812 C95.8233741,20.6205824 94.9469737,21.5535248 93.2224439,21.5535248 C92.0916046,21.5535248 91.0738493,20.9598342 90.3388038,19.6028271 L88.0771253,21.270815 C89.2362355,23.3345966 91.0173073,24.4088939 93.5899666,24.4088939 Z M109.110735,24.4088939 C105.661676,24.4088939 102.523597,21.7514217 102.523597,17.1432518 C102.523597,12.5068109 105.661676,9.84933865 109.110735,9.84933865 C112.588066,9.84933865 115.726145,12.5068109 115.726145,17.1432518 C115.726145,21.7514217 112.588066,24.4088939 109.110735,24.4088939 Z M109.110735,21.7514217 C111.146246,21.7514217 112.390169,19.9138079 112.390169,17.1432518 C112.390169,14.3444246 111.146246,12.5068109 109.110735,12.5068109 C107.075225,12.5068109 105.859572,14.3444246 105.859572,17.1432518 C105.859572,19.9138079 107.075225,21.7514217 109.110735,21.7514217 Z M123.0766,24.4088939 C124.970756,24.4088939 126.327763,23.4759515 127.543415,22.0341315 L127.628228,22.0341315 L127.882667,24.0696421 L130.540139,24.0696421 L130.540139,10.1885904 L127.288976,10.1885904 L127.288976,19.6876401 C126.24295,21.0446472 125.423091,21.6100668 124.207439,21.6100668 C122.709077,21.6100668 122.058845,20.7619374 122.058845,18.4719879 L122.058845,10.1885904 L118.807682,10.1885904 L118.807682,18.8960526 C118.807682,22.4016543 120.108147,24.4088939 123.0766,24.4088939 Z M134.667702,24.0696421 L137.918865,24.0696421 L137.918865,15.5883478 C138.766994,13.4962952 140.09573,12.7329787 141.198299,12.7329787 C141.791989,12.7329787 142.159512,12.8177917 142.640119,12.9591466 L143.205538,10.1320485 C142.781474,9.9341516 142.329138,9.84933865 141.622363,9.84933865 C140.152272,9.84933865 138.682181,10.838823 137.692697,12.6481658 L137.579613,12.6481658 L137.353445,10.1885904 L134.667702,10.1885904 L134.667702,24.0696421 Z M145.212778,24.0696421 L148.463941,24.0696421 L148.463941,14.3726956 C149.623051,13.2418564 150.414639,12.6481658 151.630291,12.6481658 C153.156924,12.6481658 153.807156,13.4962952 153.807156,15.7862447 L153.807156,24.0696421 L157.058319,24.0696421 L157.058319,15.36218 C157.058319,11.8565783 155.757854,9.84933865 152.789401,9.84933865 C150.895245,9.84933865 149.481696,10.838823 148.237773,12.0544752 L148.124689,12.0544752 L147.898521,10.1885904 L145.212778,10.1885904 L145.212778,24.0696421 Z M164.408774,24.4088939 C161.97747,24.4088939 160.309482,22.769177 160.309482,20.3378726 C160.309482,17.3694196 162.769057,15.8145157 168.479796,15.1925541 C168.423254,13.7224631 167.829563,12.4785399 165.935407,12.4785399 C164.5784,12.4785399 163.277935,13.1005015 162.034012,13.835547 L160.846631,11.6586814 C162.373264,10.6974681 164.352232,9.84933865 166.557369,9.84933865 C170.006428,9.84933865 171.730958,11.9696622 171.730958,15.8427866 L171.730958,24.0696421 L169.045215,24.0696421 L168.819047,22.5430092 L168.705963,22.5430092 C167.46204,23.5890355 166.048491,24.4088939 164.408774,24.4088939 Z M165.454801,21.8645056 C166.58564,21.8645056 167.433769,21.299086 168.479796,20.3378726 L168.479796,17.2280647 C164.691484,17.7086714 163.447561,18.6981557 163.447561,20.0834338 C163.447561,21.327357 164.29569,21.8645056 165.454801,21.8645056 Z M178.798704,24.4088939 C179.56202,24.4088939 180.12744,24.29581 180.523233,24.1261841 L180.099169,21.6948797 C179.84473,21.7514217 179.731646,21.7514217 179.590291,21.7514217 C179.251039,21.7514217 178.883517,21.4687119 178.883517,20.6771244 L178.883517,4.11032949 L175.632354,4.11032949 L175.632354,20.5074985 C175.632354,22.9105319 176.480483,24.4088939 178.798704,24.4088939 Z M196.609422,24.4088939 C198.984184,24.4088939 200.934882,23.4476806 202.433244,21.7231507 L200.680443,19.6593691 C199.634417,20.7902083 198.362223,21.5535248 196.722506,21.5535248 C193.612698,21.5535248 191.633729,19.0091365 191.633729,14.7967603 C191.633729,10.6409261 193.782324,8.09653783 196.807319,8.09653783 C198.249139,8.09653783 199.351707,8.74677039 200.31292,9.70798375 L202.065721,7.58766017 C200.906611,6.343737 199.040726,5.24116874 196.722506,5.24116874 C192.057794,5.24116874 188.269482,8.83158333 188.269482,14.8815733 C188.269482,21.0163762 191.94471,24.4088939 196.609422,24.4088939 Z M205.232071,24.0696421 L208.483234,24.0696421 L208.483234,10.1885904 L205.232071,10.1885904 L205.232071,24.0696421 Z M206.871788,7.75728605 C208.030898,7.75728605 208.879027,6.99396956 208.879027,5.91967228 C208.879027,4.81710402 208.030898,4.05378753 206.871788,4.05378753 C205.712678,4.05378753 204.864548,4.81710402 204.864548,5.91967228 C204.864548,6.99396956 205.712678,7.75728605 206.871788,7.75728605 Z M217.529948,24.4088939 C218.632516,24.4088939 219.593729,24.1544551 220.357046,23.9000163 L219.791626,21.4969829 C219.395832,21.6666087 218.830413,21.8079637 218.349806,21.8079637 C217.02107,21.8079637 216.399108,21.0163762 216.399108,19.3766593 L216.399108,12.7612497 L219.932981,12.7612497 L219.932981,10.1885904 L216.399108,10.1885904 L216.399108,6.40027896 L213.685094,6.40027896 L213.289301,10.1885904 L211.140706,10.3299453 L211.140706,12.7612497 L213.119675,12.7612497 L213.119675,19.3766593 C213.119675,22.3733833 214.307056,24.4088939 217.529948,24.4088939 Z M225.615448,24.4088939 C223.184144,24.4088939 221.516156,22.769177 221.516156,20.3378726 C221.516156,17.3694196 223.975731,15.8145157 229.68647,15.1925541 C229.629928,13.7224631 229.036237,12.4785399 227.142081,12.4785399 C225.785074,12.4785399 224.484609,13.1005015 223.240686,13.835547 L222.053305,11.6586814 C223.579938,10.6974681 225.558906,9.84933865 227.764043,9.84933865 C231.213103,9.84933865 232.937632,11.9696622 232.937632,15.8427866 L232.937632,24.0696421 L230.251889,24.0696421 L230.025721,22.5430092 L229.912637,22.5430092 C228.668714,23.5890355 227.255165,24.4088939 225.615448,24.4088939 Z M226.661475,21.8645056 C227.792314,21.8645056 228.640443,21.299086 229.68647,20.3378726 L229.68647,17.2280647 C225.898158,17.7086714 224.654235,18.6981557 224.654235,20.0834338 C224.654235,21.327357 225.502364,21.8645056 226.661475,21.8645056 Z M241.277572,24.4088939 C242.38014,24.4088939 243.341353,24.1544551 244.10467,23.9000163 L243.53925,21.4969829 C243.143457,21.6666087 242.578037,21.8079637 242.09743,21.8079637 C240.768694,21.8079637 240.146733,21.0163762 240.146733,19.3766593 L240.146733,12.7612497 L243.680605,12.7612497 L243.680605,10.1885904 L240.146733,10.1885904 L240.146733,6.40027896 L237.432718,6.40027896 L237.036925,10.1885904 L234.88833,10.3299453 L234.88833,12.7612497 L236.867299,12.7612497 L236.867299,19.3766593 C236.867299,22.3733833 238.05468,24.4088939 241.277572,24.4088939 Z M246.592516,24.0696421 L249.843679,24.0696421 L249.843679,10.1885904 L246.592516,10.1885904 L246.592516,24.0696421 Z M248.232233,7.75728605 C249.391343,7.75728605 250.239473,6.99396956 250.239473,5.91967228 C250.239473,4.81710402 249.391343,4.05378753 248.232233,4.05378753 C247.073123,4.05378753 246.224993,4.81710402 246.224993,5.91967228 C246.224993,6.99396956 247.073123,7.75728605 248.232233,7.75728605 Z M259.68198,24.4088939 C256.232921,24.4088939 253.094842,21.7514217 253.094842,17.1432518 C253.094842,12.5068109 256.232921,9.84933865 259.68198,9.84933865 C263.159311,9.84933865 266.29739,12.5068109 266.29739,17.1432518 C266.29739,21.7514217 263.159311,24.4088939 259.68198,24.4088939 Z M259.68198,21.7514217 C261.717491,21.7514217 262.961414,19.9138079 262.961414,17.1432518 C262.961414,14.3444246 261.717491,12.5068109 259.68198,12.5068109 C257.64647,12.5068109 256.430818,14.3444246 256.430818,17.1432518 C256.430818,19.9138079 257.64647,21.7514217 259.68198,21.7514217 Z M269.520282,24.0696421 L272.771445,24.0696421 L272.771445,14.3726956 C273.930555,13.2418564 274.722142,12.6481658 275.937795,12.6481658 C277.464428,12.6481658 278.11466,13.4962952 278.11466,15.7862447 L278.11466,24.0696421 L281.365823,24.0696421 L281.365823,15.36218 C281.365823,11.8565783 280.065358,9.84933865 277.096905,9.84933865 C275.202749,9.84933865 273.7892,10.838823 272.545277,12.0544752 L272.432193,12.0544752 L272.206025,10.1885904 L269.520282,10.1885904 L269.520282,24.0696421 Z M291.288937,24.0696421 L291.288937,5.58042051 L297.536824,5.58042051 C301.381678,5.58042051 304.32186,6.9374276 304.32186,11.0649908 C304.32186,13.8920889 302.851769,15.5883478 300.646632,16.3516643 L305.056905,24.0696421 L301.381678,24.0696421 L297.395469,16.832271 L294.568371,16.832271 L294.568371,24.0696421 L291.288937,24.0696421 Z M294.568371,14.2313407 L297.197572,14.2313407 C299.71369,14.2313407 301.098968,13.1570434 301.098968,11.0649908 C301.098968,8.94466726 299.71369,8.20962175 297.197572,8.20962175 L294.568371,8.20962175 L294.568371,14.2313407 Z M313.396845,24.4088939 C309.551991,24.4088939 306.555267,21.7231507 306.555267,17.1432518 C306.555267,12.6198948 309.693346,9.84933865 312.944509,9.84933865 C316.704549,9.84933865 318.683518,12.5633528 318.683518,16.4364772 C318.683518,17.0584388 318.626976,17.6804004 318.542163,18.0196522 L309.721617,18.0196522 C310.004327,20.4792275 311.587502,21.8927766 313.820909,21.8927766 C315.00829,21.8927766 316.026046,21.5252538 317.043801,20.8750213 L318.146369,22.9105319 C316.817633,23.7869323 315.149645,24.4088939 313.396845,24.4088939 Z M309.693346,15.8145157 L315.85642,15.8145157 C315.85642,13.6659211 314.923478,12.365456 313.029322,12.365456 C311.389605,12.365456 309.976056,13.5811082 309.693346,15.8145157 Z M321.793326,29.5542125 L321.793326,10.1885904 L324.479069,10.1885904 L324.705237,11.6586814 L324.818321,11.6586814 C325.977431,10.6691971 327.475793,9.84933865 329.002426,9.84933865 C332.451486,9.84933865 334.458725,12.6198948 334.458725,16.9170839 C334.458725,21.6666087 331.603356,24.4088939 328.521819,24.4088939 C327.306167,24.4088939 326.090515,23.8434743 324.959676,22.8822609 L325.044489,25.2004814 L325.044489,29.5542125 L321.793326,29.5542125 Z M327.843316,21.7231507 C329.68093,21.7231507 331.094479,20.0834338 331.094479,16.9453549 C331.094479,14.1747988 330.189807,12.5350819 328.097755,12.5350819 C327.079999,12.5350819 326.118786,13.0439595 325.044489,14.0899858 L325.044489,20.5640405 C326.062244,21.4121699 327.023457,21.7231507 327.843316,21.7231507 Z M343.420626,24.4088939 C339.971567,24.4088939 336.833488,21.7514217 336.833488,17.1432518 C336.833488,12.5068109 339.971567,9.84933865 343.420626,9.84933865 C346.897957,9.84933865 350.036036,12.5068109 350.036036,17.1432518 C350.036036,21.7514217 346.897957,24.4088939 343.420626,24.4088939 Z M343.420626,21.7514217 C345.456137,21.7514217 346.70006,19.9138079 346.70006,17.1432518 C346.70006,14.3444246 345.456137,12.5068109 343.420626,12.5068109 C341.385116,12.5068109 340.169464,14.3444246 340.169464,17.1432518 C340.169464,19.9138079 341.385116,21.7514217 343.420626,21.7514217 Z M353.258928,24.0696421 L356.510091,24.0696421 L356.510091,15.5883478 C357.35822,13.4962952 358.686956,12.7329787 359.789525,12.7329787 C360.383215,12.7329787 360.750738,12.8177917 361.231345,12.9591466 L361.796764,10.1320485 C361.372699,9.9341516 360.920364,9.84933865 360.213589,9.84933865 C358.743498,9.84933865 357.273407,10.838823 356.283923,12.6481658 L356.170839,12.6481658 L355.944671,10.1885904 L353.258928,10.1885904 L353.258928,24.0696421 Z M368.694884,24.4088939 C369.797452,24.4088939 370.758665,24.1544551 371.521982,23.9000163 L370.956562,21.4969829 C370.560768,21.6666087 369.995349,21.8079637 369.514742,21.8079637 C368.186006,21.8079637 367.564044,21.0163762 367.564044,19.3766593 L367.564044,12.7612497 L371.097917,12.7612497 L371.097917,10.1885904 L367.564044,10.1885904 L367.564044,6.40027896 L364.85003,6.40027896 L364.454236,10.1885904 L362.305642,10.3299453 L362.305642,12.7612497 L364.284611,12.7612497 L364.284611,19.3766593 C364.284611,22.3733833 365.471992,24.4088939 368.694884,24.4088939 Z M377.600243,24.4088939 C381.105844,24.4088939 383,22.4864672 383,20.1117048 C383,17.5107745 380.907947,16.6061031 379.013792,15.8993286 C377.51543,15.36218 376.130152,14.9381152 376.130152,13.835547 C376.130152,12.9591466 376.780384,12.308914 378.165662,12.308914 C379.26823,12.308914 380.257715,12.7895207 381.218928,13.4962952 L382.71729,11.5173265 C381.586451,10.6409261 380.031547,9.84933865 378.10912,9.84933865 C374.999312,9.84933865 373.048615,11.5738685 373.048615,14.0051729 C373.048615,16.3233933 375.112396,17.3694196 376.95001,18.0479232 C378.420101,18.6133428 379.918463,19.1222204 379.918463,20.2813307 C379.918463,21.242544 379.211689,21.9493186 377.713327,21.9493186 C376.299777,21.9493186 375.112396,21.355628 373.868473,20.3944146 L372.34184,22.4864672 C373.698847,23.5890355 375.706087,24.4088939 377.600243,24.4088939 Z" id="InCites-Journal-Cita"></path>
        </g>
    </g>
</svg>