<svg version="1.1" id="Layer_1" xmlns="http://www.w3.org/2000/svg" xmlns:xlink="http://www.w3.org/1999/xlink" x="0" y="0" viewBox="0 0 512 512" xml:space="preserve" enable-background="new 0 0 512 512"><path d="M485.517,61.793H26.483C11.857,61.793,0,73.65,0,88.276v335.448	c0,14.626,11.857,26.483,26.483,26.483h459.034c14.626,0,26.483-11.857,26.483-26.483V88.276	C512,73.65,500.143,61.793,485.517,61.793z M441.379,79.448h8.828c4.875,0,8.828,3.953,8.828,8.828c0,4.875-3.953,8.828-8.828,8.828	h-8.828c-4.875,0-8.828-3.953-8.828-8.828C432.552,83.401,436.504,79.448,441.379,79.448z M194.207,79.448h211.862	c4.875,0,8.828,3.953,8.828,8.828c0,4.875-3.953,8.828-8.828,8.828H194.207c-4.875,0-8.828-3.953-8.828-8.828	C185.379,83.401,189.332,79.448,194.207,79.448z M150.069,79.448h8.828c4.875,0,8.828,3.953,8.828,8.828	c0,4.875-3.953,8.828-8.828,8.828h-8.828c-4.875,0-8.828-3.953-8.828-8.828C141.241,83.401,145.194,79.448,150.069,79.448z M114.759,79.448h8.828c4.875,0,8.828,3.953,8.828,8.828c0,4.875-3.953,8.828-8.828,8.828h-8.828c-4.875,0-8.828-3.953-8.828-8.828	C105.931,83.401,109.884,79.448,114.759,79.448z M79.448,79.448c4.875,0,8.828,3.953,8.828,8.828c0,4.875-3.953,8.828-8.828,8.828	c-4.875,0-8.828-3.953-8.828-8.828C70.621,83.401,74.573,79.448,79.448,79.448z M52.966,79.448c4.875,0,8.828,3.953,8.828,8.828	c0,4.875-3.953,8.828-8.828,8.828s-8.828-3.953-8.828-8.828C44.138,83.401,48.09,79.448,52.966,79.448z M26.483,79.448	c4.875,0,8.828,3.953,8.828,8.828c0,4.875-3.953,8.828-8.828,8.828s-8.828-3.953-8.828-8.828	C17.655,83.401,21.608,79.448,26.483,79.448z M494.345,167.724v256c0,4.875-3.953,8.828-8.828,8.828H26.483	c-4.875,0-8.828-3.953-8.828-8.828v-256v-44.138c0-4.875,3.953-8.828,8.828-8.828h459.034c4.875,0,8.828,3.953,8.828,8.828V167.724z M485.517,97.103h-8.828c-4.875,0-8.828-3.953-8.828-8.828c0-4.875,3.953-8.828,8.828-8.828h8.828c4.875,0,8.828,3.953,8.828,8.828	C494.345,93.151,490.392,97.103,485.517,97.103z" fill="#D2DCF0"/><path d="M17.655,423.724c0,4.875,3.953,8.828,8.828,8.828h459.034c4.875,0,8.828-3.953,8.828-8.828v-256	H17.655V423.724z M397.241,211.862v-8.828c0-4.875,3.953-8.828,8.828-8.828h52.966c4.875,0,8.828,3.953,8.828,8.828v8.828v70.621	c0,4.875-3.953,8.828-8.828,8.828h-52.966c-4.875,0-8.828-3.953-8.828-8.828V211.862z M300.138,211.862v-8.828	c0-4.875,3.953-8.828,8.828-8.828h52.966c4.875,0,8.828,3.953,8.828,8.828v8.828v70.621c0,4.875-3.953,8.828-8.828,8.828h-52.966	c-4.875,0-8.828-3.953-8.828-8.828V211.862z M300.138,326.621c0-4.875,3.953-8.828,8.828-8.828h8.828h141.241	c4.875,0,8.828,3.953,8.828,8.828v70.621c0,4.875-3.953,8.828-8.828,8.828H317.793h-8.828c-4.875,0-8.828-3.953-8.828-8.828V326.621	z M203.034,211.862v-8.828c0-4.875,3.953-8.828,8.828-8.828h52.966c4.875,0,8.828,3.953,8.828,8.828v8.828v70.621	c0,4.875-3.953,8.828-8.828,8.828h-52.966c-4.875,0-8.828-3.953-8.828-8.828V211.862z M44.138,211.862v-8.828	c0-4.875,3.953-8.828,8.828-8.828h114.759c4.875,0,8.828,3.953,8.828,8.828v8.828v70.621c0,4.875-3.953,8.828-8.828,8.828H52.966	c-4.875,0-8.828-3.953-8.828-8.828V211.862z M44.138,326.621c0-4.875,3.953-8.828,8.828-8.828h8.828h203.034	c4.875,0,8.828,3.953,8.828,8.828v70.621c0,4.875-3.953,8.828-8.828,8.828H61.793h-8.828c-4.875,0-8.828-3.953-8.828-8.828V326.621z" fill="#FFF"/><circle cx="26.483" cy="88.276" r="8.828" fill="#FF6469"/><circle cx="52.966" cy="88.276" r="8.828" fill="#FFE169"/><circle cx="79.448" cy="88.276" r="8.828" fill="#87E1AA"/><g><path d="M114.759,97.103h8.828c4.875,0,8.828-3.953,8.828-8.828c0-4.875-3.953-8.828-8.828-8.828h-8.828 c-4.875,0-8.828,3.953-8.828,8.828C105.931,93.151,109.884,97.103,114.759,97.103z" fill="#E4EAF6"/><path d="M150.069,97.103h8.828c4.875,0,8.828-3.953,8.828-8.828c0-4.875-3.953-8.828-8.828-8.828h-8.828 c-4.875,0-8.828,3.953-8.828,8.828C141.241,93.151,145.194,97.103,150.069,97.103z" fill="#E4EAF6"/><path d="M441.379,97.103h8.828c4.875,0,8.828-3.953,8.828-8.828c0-4.875-3.953-8.828-8.828-8.828h-8.828 c-4.875,0-8.828,3.953-8.828,8.828C432.552,93.151,436.504,97.103,441.379,97.103z" fill="#E4EAF6"/><path d="M485.517,79.448h-8.828c-4.875,0-8.828,3.953-8.828,8.828c0,4.875,3.953,8.828,8.828,8.828h8.828 c4.875,0,8.828-3.953,8.828-8.828C494.345,83.401,490.392,79.448,485.517,79.448z" fill="#E4EAF6"/><path d="M194.207,97.103h211.862c4.875,0,8.828-3.953,8.828-8.828c0-4.875-3.953-8.828-8.828-8.828H194.207 c-4.875,0-8.828,3.953-8.828,8.828C185.379,93.151,189.332,97.103,194.207,97.103z" fill="#E4EAF6"/></g><path d="M485.517,114.759H26.483c-4.875,0-8.828,3.953-8.828,8.828v44.138h476.69v-44.138	C494.345,118.711,490.392,114.759,485.517,114.759z M114.759,150.069H44.138c-4.875,0-8.828-3.953-8.828-8.828	s3.953-8.828,8.828-8.828h70.621c4.875,0,8.828,3.953,8.828,8.828S119.634,150.069,114.759,150.069z M185.379,150.069h-35.31	c-4.875,0-8.828-3.953-8.828-8.828s3.953-8.828,8.828-8.828h35.31c4.875,0,8.828,3.953,8.828,8.828S190.254,150.069,185.379,150.069	z M256,150.069h-35.31c-4.875,0-8.828-3.953-8.828-8.828s3.953-8.828,8.828-8.828H256c4.875,0,8.828,3.953,8.828,8.828	S260.875,150.069,256,150.069z M326.621,150.069h-35.31c-4.875,0-8.828-3.953-8.828-8.828s3.953-8.828,8.828-8.828h35.31	c4.875,0,8.828,3.953,8.828,8.828S331.496,150.069,326.621,150.069z M397.241,150.069h-35.31c-4.875,0-8.828-3.953-8.828-8.828	s3.953-8.828,8.828-8.828h35.31c4.875,0,8.828,3.953,8.828,8.828S402.116,150.069,397.241,150.069z M467.862,150.069h-35.31	c-4.875,0-8.828-3.953-8.828-8.828s3.953-8.828,8.828-8.828h35.31c4.875,0,8.828,3.953,8.828,8.828S472.737,150.069,467.862,150.069	z" fill="#FF6469"/><path d="M114.759,132.414H44.138c-4.875,0-8.828,3.953-8.828,8.828s3.953,8.828,8.828,8.828h70.621	c4.875,0,8.828-3.953,8.828-8.828S119.634,132.414,114.759,132.414z" fill="#FFDC69"/><g><path d="M185.379,132.414h-35.31c-4.875,0-8.828,3.953-8.828,8.828s3.953,8.828,8.828,8.828h35.31 c4.875,0,8.828-3.953,8.828-8.828S190.254,132.414,185.379,132.414z" fill="#D2555F"/><path d="M256,132.414h-35.31c-4.875,0-8.828,3.953-8.828,8.828s3.953,8.828,8.828,8.828H256 c4.875,0,8.828-3.953,8.828-8.828S260.875,132.414,256,132.414z" fill="#D2555F"/><path d="M326.621,132.414h-35.31c-4.875,0-8.828,3.953-8.828,8.828s3.953,8.828,8.828,8.828h35.31 c4.875,0,8.828-3.953,8.828-8.828S331.496,132.414,326.621,132.414z" fill="#D2555F"/><path d="M397.241,132.414h-35.31c-4.875,0-8.828,3.953-8.828,8.828s3.953,8.828,8.828,8.828h35.31 c4.875,0,8.828-3.953,8.828-8.828S402.116,132.414,397.241,132.414z" fill="#D2555F"/><path d="M467.862,132.414h-35.31c-4.875,0-8.828,3.953-8.828,8.828s3.953,8.828,8.828,8.828h35.31 c4.875,0,8.828-3.953,8.828-8.828S472.737,132.414,467.862,132.414z" fill="#D2555F"/></g><g><path d="M52.966,291.31h114.759c4.875,0,8.828-3.953,8.828-8.828v-70.621c0,4.875-3.953,8.828-8.828,8.828 H52.966c-4.875,0-8.828-3.953-8.828-8.828v70.621C44.138,287.358,48.09,291.31,52.966,291.31z" fill="#DEE3ED"/><path d="M211.862,291.31h52.966c4.875,0,8.828-3.953,8.828-8.828v-70.621c0,4.875-3.953,8.828-8.828,8.828 h-52.966c-4.875,0-8.828-3.953-8.828-8.828v70.621C203.034,287.358,206.987,291.31,211.862,291.31z" fill="#DEE3ED"/><path d="M308.966,291.31h52.966c4.875,0,8.828-3.953,8.828-8.828v-70.621c0,4.875-3.953,8.828-8.828,8.828 h-52.966c-4.875,0-8.828-3.953-8.828-8.828v70.621C300.138,287.358,304.09,291.31,308.966,291.31z" fill="#DEE3ED"/><path d="M406.069,291.31h52.966c4.875,0,8.828-3.953,8.828-8.828v-70.621c0,4.875-3.953,8.828-8.828,8.828 h-52.966c-4.875,0-8.828-3.953-8.828-8.828v70.621C397.241,287.358,401.194,291.31,406.069,291.31z" fill="#DEE3ED"/></g><path d="M52.966,220.69h114.759c4.875,0,8.828-3.953,8.828-8.828v-8.828c0-4.875-3.953-8.828-8.828-8.828	H52.966c-4.875,0-8.828,3.953-8.828,8.828v8.828C44.138,216.737,48.09,220.69,52.966,220.69z" fill="#FFDC69"/><path d="M211.862,220.69h52.966c4.875,0,8.828-3.953,8.828-8.828v-8.828c0-4.875-3.953-8.828-8.828-8.828	h-52.966c-4.875,0-8.828,3.953-8.828,8.828v8.828C203.034,216.737,206.987,220.69,211.862,220.69z" fill="#B4E173"/><path d="M308.966,220.69h52.966c4.875,0,8.828-3.953,8.828-8.828v-8.828c0-4.875-3.953-8.828-8.828-8.828	h-52.966c-4.875,0-8.828,3.953-8.828,8.828v8.828C300.138,216.737,304.09,220.69,308.966,220.69z" fill="#FF969B"/><path d="M406.069,220.69h52.966c4.875,0,8.828-3.953,8.828-8.828v-8.828c0-4.875-3.953-8.828-8.828-8.828	h-52.966c-4.875,0-8.828,3.953-8.828,8.828v8.828C397.241,216.737,401.194,220.69,406.069,220.69z" fill="#A0DCF0"/><g><path d="M70.621,326.621v70.621c0,4.875-3.953,8.828-8.828,8.828h203.034c4.875,0,8.828-3.953,8.828-8.828 v-70.621c0-4.875-3.953-8.828-8.828-8.828H61.793C66.668,317.793,70.621,321.746,70.621,326.621z" fill="#DEE3ED"/><path d="M326.621,326.621v70.621c0,4.875-3.953,8.828-8.828,8.828h141.241c4.875,0,8.828-3.953,8.828-8.828 v-70.621c0-4.875-3.953-8.828-8.828-8.828H317.793C322.668,317.793,326.621,321.746,326.621,326.621z" fill="#DEE3ED"/></g><path d="M52.966,406.069h8.828c4.875,0,8.828-3.953,8.828-8.828v-70.621c0-4.875-3.953-8.828-8.828-8.828	h-8.828c-4.875,0-8.828,3.953-8.828,8.828v70.621C44.138,402.116,48.09,406.069,52.966,406.069z" fill="#C3B4FA"/><path d="M308.966,406.069h8.828c4.875,0,8.828-3.953,8.828-8.828v-70.621c0-4.875-3.953-8.828-8.828-8.828	h-8.828c-4.875,0-8.828,3.953-8.828,8.828v70.621C300.138,402.116,304.09,406.069,308.966,406.069z" fill="#91E6BE"/></svg>