<svg version="1.1" id="Layer_1" xmlns="http://www.w3.org/2000/svg" xmlns:xlink="http://www.w3.org/1999/xlink" x="0" y="0" viewBox="0 0 512 512" xml:space="preserve" enable-background="new 0 0 512 512"><g><path d="M35.31,295.725H13.241C5.929,295.725,0,289.796,0,282.483V185.38 c0-7.313,5.929-13.241,13.241-13.241H35.31V295.725z" fill="#707487"/><path d="M476.69,172.138h22.069c7.313,0,13.241,5.929,13.241,13.241v97.103 c0,7.313-5.929,13.241-13.241,13.241H476.69V172.138z" fill="#707487"/></g><path d="M503.117,343.535L489.065,152.21c-1.198-18.58-16.618-33.037-35.238-33.037H58.173	c-18.618,0-34.038,14.457-35.238,33.037L8.883,343.535c-0.845,13.103,8.04,24.849,20.879,27.599l64.658,13.855	c24.317,5.21,49.117,7.838,73.985,7.838h175.189c24.87,0,49.668-2.627,73.985-7.838l64.658-13.855	C495.078,368.383,503.962,356.638,503.117,343.535z" fill="#515262"/><path d="M409.582,145.656H102.418c-8.306,0-15.488,5.789-17.252,13.905L48.693,300.85	c-2.696,12.399,3.783,24.969,15.446,29.967l83.512,35.79c13.186,5.651,27.382,8.565,41.728,8.565h133.241	c14.346,0,28.542-2.914,41.728-8.565l83.512-35.79c11.663-4.999,18.142-17.568,15.446-29.967l-36.472-141.29	C425.07,151.444,417.888,145.656,409.582,145.656z" fill="#464655"/><g><path d="M103.018,145.656h-0.6c-8.306,0-15.488,5.789-17.252,13.905L48.693,300.849 c-2.696,12.399,3.783,24.969,15.446,29.967l83.512,35.791c13.185,5.651,27.382,8.565,41.727,8.565h13.567l-100.947-62.121 c-8.477-5.216-13.313-14.745-12.519-24.667L103.018,145.656z" fill="#5B5D6E"/><path d="M408.982,145.656h0.6c8.306,0,15.488,5.789,17.252,13.905l36.472,141.289 c2.696,12.399-3.783,24.969-15.446,29.967l-83.512,35.791c-13.185,5.651-27.382,8.565-41.727,8.565h-13.568l100.947-62.121 c8.477-5.216,13.313-14.745,12.519-24.667L408.982,145.656z" fill="#5B5D6E"/></g><g><path d="M291.31,357.518H256c-4.875,0-8.828-3.953-8.828-8.828l0,0c0-4.875,3.953-8.828,8.828-8.828h35.31 c4.875,0,8.828,3.953,8.828,8.828l0,0C300.138,353.565,296.185,357.518,291.31,357.518z" fill="#707487"/><circle cx="220.69" cy="348.69" r="13.241" fill="#707487"/></g></svg>