<svg xmlns="http://www.w3.org/2000/svg" viewBox="0 0 446.7 86.1" enable-background="new 0 0 446.7 86.1"><path fill="#CA493C" d="M38.8.6c1.5 0 2.8 1.1 2.8 2.6s-1.3 2.6-2.8 2.6h-15.3v77.5c0 1.5-1.3 2.6-2.8 2.6-1.4 0-2.6-1.1-2.6-2.6v-77.4h-15.5c-1.3 0-2.6-1.1-2.6-2.6s1.3-2.6 2.6-2.6h36.2zm14 82.2v-79.5c0-1.5 1.1-2.6 2.6-2.6h27.8c1.5 0 2.6 1.1 2.6 2.6s-1.1 2.6-2.6 2.6h-25.1v33.1h22.4c1.5 0 2.6 1.1 2.6 2.6s-1.1 2.6-2.6 2.6h-22.4v35.9h25.2c1.5 0 2.6 1.1 2.6 2.6s-1.1 2.6-2.6 2.6h-27.8c-1.5.2-2.7-1-2.7-2.5zm44-16.1v-47.3c0-8.8 5.8-16.4 14.3-18.6 8.5-2.4 17.4 1.4 21.7 8.9.8 1.4.4 2.9-1 3.8-1.3.7-2.9.3-3.6-1-3.2-5.6-9.6-8.2-15.7-6.5-6.1 1.5-10.4 7.2-10.4 13.5v47.3c0 6.4 4.3 12 10.4 13.5 6.1 1.7 12.5-1 15.7-6.5.7-1.3 2.4-1.7 3.6-1 1.4.8 1.8 2.4 1 3.8-4.3 7.5-13.2 11.3-21.7 9-8.5-2.5-14.3-10.2-14.3-18.9zm80.3-27.7v-36.3c0-1.5 1.3-2.6 2.6-2.6 1.5 0 2.8 1.1 2.8 2.6v80.7c0 1.5-1.3 2.6-2.8 2.6-1.4 0-2.6-1.1-2.6-2.6v-39.1h-28v39.1c0 1.5-1.3 2.6-2.8 2.6-1.4 0-2.6-1.1-2.6-2.6v-80.7c0-1.5 1.3-2.6 2.6-2.6 1.5 0 2.8 1.1 2.8 2.6v36.3h28z"/><path fill="#3A3A3A" d="M202.8 19.1c0 2.2-1.8 4-4.2 4-2.2 0-4-1.8-4-4s1.8-4 4-4c2.4 0 4.2 1.8 4.2 4zm-4.2 56.9c-2.2 0-4-1.8-4-4s1.8-4 4-4c2.4 0 4.2 1.8 4.2 4s-1.8 4-4.2 4zm28.1-56.9c0 2.2-1.8 4-4.2 4-2.2 0-4-1.8-4-4s1.8-4 4-4c2.4 0 4.2 1.8 4.2 4zm-4.2 56.9c-2.2 0-4-1.8-4-4s1.8-4 4-4c2.4 0 4.2 1.8 4.2 4s-1.8 4-4.2 4zm17.4-9.3v-47.3c0-8.8 5.8-16.4 14.3-18.6 8.5-2.4 17.4 1.4 21.7 8.9.8 1.4.4 2.9-1 3.8-1.3.7-2.9.3-3.6-1-3.2-5.6-9.6-8.2-15.7-6.5-6.1 1.5-10.4 7.2-10.4 13.5v47.3c0 6.4 4.3 12 10.4 13.5 6.1 1.7 12.5-1 15.7-6.5.7-1.3 2.4-1.7 3.6-1 1.4.8 1.8 2.4 1 3.8-4.3 7.5-13.2 11.3-21.7 9-8.4-2.5-14.3-10.2-14.3-18.9zm93.2 16c.4 1.4-.4 2.9-1.8 3.3-1.4.3-2.9-.6-3.3-1.9 0 0-1.9-7.4-4.7-17.5h-29.8c-2.8 10.2-4.9 17.5-4.9 17.5-.3 1.4-1.8 2.2-3.2 1.9-1.4-.4-2.2-1.9-1.9-3.3l22.2-80.7c.4-1.1 1.4-1.9 2.6-1.9s2.2.8 2.5 1.9l22.3 80.7zm-11.4-21.4c-4.9-17.5-11-40.1-13.4-48.5-2.4 8.5-8.5 31-13.4 48.5h26.8zm22.4 22.1v-80.7c0-1.3.8-2.4 2.1-2.6 1.1-.3 2.4.4 2.9 1.5 0 0 16 33.9 19.9 42.1 3.8-8.2 19.8-42.1 19.8-42.1.6-1.1 1.8-1.8 3.1-1.5s2.1 1.4 2.1 2.6v80.7c0 1.5-1.3 2.6-2.6 2.6-1.5 0-2.6-1.1-2.6-2.6v-68.7c-6.1 12.8-17.2 36.4-17.2 36.4-.4 1-1.4 1.5-2.4 1.5-1.1 0-1.9-.6-2.5-1.5 0 0-11-23.6-17.1-36.4v68.7c0 1.5-1.3 2.6-2.6 2.6-1.8 0-2.9-1.1-2.9-2.6zm66.6-82.8h16.7c10.7 0 19.3 8.6 19.3 19.3v7.8c0 10.7-8.6 19.3-19.3 19.3h-14v36.3c0 1.5-1.1 2.6-2.6 2.6s-2.6-1.1-2.6-2.6v-80c-.1-1.6 1-2.7 2.5-2.7zm16.7 5.3h-14v35.9h14c7.8 0 14-6.3 14-14v-7.8c0-7.8-6.2-14.1-14-14.1z"/></svg>
