<?xml version="1.0" encoding="utf-8"?>
<!-- Generator: Adobe Illustrator 19.1.0, SVG Export Plug-In . SVG Version: 6.00 Build 0)  -->
<svg version="1.1" id="Layer_1" xmlns="http://www.w3.org/2000/svg" xmlns:xlink="http://www.w3.org/1999/xlink" x="0px" y="0px"
	 viewBox="210.4 65.5 703 268.9" style="enable-background:new 210.4 65.5 703 268.9;" xml:space="preserve">
<style type="text/css">
	.st0{fill:#064B7A;}
	.st1{fill:#F7973A;}
	.st2{fill:#A4A7AA;}
</style>
<g>
	<path class="st0" d="M243.8,311.7c0,9.3-4.8,14.6-12.2,14.6c-7.9,0-12.3-5-12.3-14.6c0-8.6,5.3-13.8,12.3-13.8
		C238.9,297.8,243.8,302.8,243.8,311.7z M231.6,323.7c5.6,0,8.3-4.6,8.3-12c0-6.5-3.3-11.3-8.3-11.3c-5.5,0-8.4,4.5-8.4,11.3
		C223.2,318.9,226.3,323.7,231.6,323.7z"/>
	<path class="st0" d="M252.3,310.6c0.5-2.4,2.5-4.1,5-4.1c0.5,0,1.3,0.1,1.7,0.3c0.3,0.5,0.5,1.4,0.5,2.3c0,0.4,0,0.7-0.1,1
		c-0.7-0.4-1.7-0.7-2.6-0.7c-1.8,0-3.5,1-4.5,3.2V323c1.1,0.1,2.9,0.4,3.8,0.7c0.1,0.5,0.2,1.2,0.1,1.8H246c0.1-0.6,0.3-1.2,0.5-1.7
		c0.6-0.3,1.7-0.6,2.5-0.7v-13.7h-2.8c0-0.7,0.3-1.5,0.7-2.1c0.9-0.3,2.1-0.5,3.2-0.5c0.7,0,1.3,0.1,1.8,0.2v3.7H252.3z"/>
	<path class="st0" d="M264.2,302.4c0.6-0.3,1.8-0.6,2.6-0.6v5.3h5.6c0.1,0.4,0.2,1.6,0.1,2.2h-5.7V320c0,2.5,0.3,3.6,2.5,3.6
		c1.1,0,2.4-0.2,3.6-0.5c0,0.2,0,0.4,0,0.5c0,0.5-0.2,1.2-0.4,1.5c-1.5,0.7-3.2,1-4.8,1c-3,0-4.5-1.6-4.5-5.6c0-2.3,0-7.3,0.2-11.2
		h-2.7c0-0.5,0.2-1.5,0.5-2c0.6-0.3,1.5-0.5,2.2-0.7L264.2,302.4z"/>
	<path class="st0" d="M280.9,323.1c0.9,0.1,2.1,0.3,2.8,0.5c0.1,0.5,0.2,1.3,0.1,1.9h-9.3c0.1-0.6,0.3-1.2,0.5-1.7
		c0.6-0.3,1.7-0.6,2.5-0.7v-23.2h-2.8c0-0.7,0.3-1.5,0.7-2.1c0.9-0.3,2.2-0.5,3.5-0.5c0.7,0,1.4,0.1,2,0.2v7.5
		c0,1.6-0.1,3.3-0.2,4.8h0.4c0.6-1.5,2.6-3.3,6.1-3.3c3.1,0,5.8,1,5.8,7c0,3.3-0.1,6.5-0.2,9.7c1,0.1,2.4,0.3,3.1,0.5
		c0.1,0.3,0.1,0.8,0.1,1.2c0,0.2,0,0.4,0,0.7h-9.2c0.1-0.6,0.3-1.2,0.5-1.7c0.6-0.3,1.5-0.6,2.2-0.7V314c0-3-1-4.9-3.7-4.9
		c-2,0-4.1,1.4-5,2.5V323.1z"/>
	<path class="st0" d="M313.7,316c0,6.5-3.4,10.1-8.8,10.1c-5.7,0-8.8-3.5-8.8-10.1c0-5.9,3.8-9.6,8.8-9.6
		C310.2,306.4,313.7,309.8,313.7,316z M304.9,323.8c3.6,0,5.3-3,5.3-7.8c0-4.1-2.1-7.3-5.3-7.3c-3.4,0-5.3,2.9-5.3,7.3
		C299.6,320.7,301.6,323.8,304.9,323.8z"/>
	<path class="st0" d="M321.8,332c1,0.1,2.8,0.4,3.7,0.7c0.1,0.5,0.2,1.2,0.1,1.8h-10.1c0.1-0.6,0.3-1.2,0.5-1.7
		c0.6-0.3,1.7-0.6,2.5-0.7v-22.7h-2.9c0-0.7,0.3-1.5,0.7-2.1c0.9-0.3,2.1-0.5,3.2-0.5c0.7,0,1.3,0.1,1.8,0.2v2.5h0.4
		c1-1.5,2.4-3,5.7-3c3.4,0,7.3,2.3,7.3,9.3c0,6.2-3.9,10.4-9.5,10.4c-1.1,0-2.6-0.3-3.4-0.9V332z M321.7,323.3
		c0.9,0.3,2.1,0.5,3.2,0.5c4.3,0,6.2-3.1,6.2-7.5c0-4.6-2.1-7.3-5-7.3c-2.2,0-3.6,1.2-4.4,2.4V323.3z"/>
	<path class="st0" d="M347.6,323.2c-1,1.9-3.1,2.9-5.4,2.9c-2.8,0-5.5-1.6-5.5-5.2c0-4,3.4-6,7.2-6c1.2,0,2.6,0.2,3.6,0.7v-2.1
		c0-2.9-1.2-4.3-3.7-4.3c-1.7,0-4.3,1-5.7,1.9c-0.2-0.3-0.2-0.8-0.2-1.3c0-0.7,0.2-1.5,0.4-1.9c1.3-0.7,4.3-1.4,6.3-1.4
		c4.2,0,6.1,2.1,6.1,7.4v7.5c0,0.8,0.2,1.7,0.5,2c0.6,0,1.9-0.2,2.7-0.5c0,0.2,0,0.3,0,0.4c0,0.6-0.2,1.3-0.4,1.7
		c-0.9,0.5-2.9,1.1-4.2,1.1c-0.8-0.5-1.5-1.7-1.6-2.9H347.6z M347.5,317.3c-0.7-0.2-1.9-0.3-2.7-0.3c-3,0-4.7,1.4-4.7,3.4
		c0,2.1,1.7,3.1,3.5,3.1c1.5,0,3.1-0.7,3.9-1.9V317.3z"/>
	<path class="st0" d="M358.3,316.7c0.1,4.1,2.7,6.7,6.3,6.7c1.7,0,4-0.5,5.4-1.1c0.1,0.6-0.2,1.6-0.5,2.2c-1.4,0.8-3.7,1.6-6.1,1.6
		c-5.5,0-8.7-4.1-8.7-9.5c0-5.7,3.5-10.2,8.9-10.2c4.6,0,6.6,3.4,6.6,8.2c0,0.7,0,1.4-0.1,2.1H358.3z M366.8,314.5
		c0.3-2.7-0.5-5.9-3.8-5.9c-2.7,0-4.5,2.4-4.8,5.9H366.8z"/>
	<path class="st0" d="M385.1,299.8h-2.8c0-0.7,0.3-1.5,0.7-2.1c0.9-0.3,2.2-0.5,3.5-0.5c0.7,0,1.4,0.1,2,0.2v23c0,0.9,0.1,2,0.3,2.7
		h2.9c0,0.2,0,0.4,0,0.5c0,0.5-0.2,1.2-0.3,1.5c-1.4,0.5-4.1,0.8-5.2,0.8c-0.4-0.8-0.7-1.7-0.8-2.8h-0.2c-1,1.5-2.6,3-5.8,3
		c-3.4,0-7.2-2.3-7.2-9.3c0-6.2,3.8-10.4,9.4-10.4c1.2,0,2.7,0.3,3.5,0.9V299.8z M385.2,309.3c-0.9-0.3-2.1-0.5-3.2-0.5
		c-4.3,0-6.2,3-6.2,7.5c0,4.6,2.1,7.2,5,7.2c2.2,0,3.6-1.1,4.4-2.3V309.3z"/>
	<path class="st0" d="M392.4,309.3c0-0.7,0.3-1.5,0.7-2.1c0.9-0.3,2.2-0.5,3.5-0.5c0.7,0,1.4,0.1,2,0.2v16.2c1,0.1,2.2,0.3,3.1,0.5
		c0.1,0.3,0.1,0.8,0.1,1.2c0,0.2,0,0.4,0,0.7h-9.5c0.1-0.6,0.3-1.2,0.5-1.7c0.6-0.3,1.7-0.6,2.5-0.7v-13.7H392.4z M399.2,300.2
		c0,1.5-0.9,2.3-2.2,2.3c-1.4,0-2.2-0.8-2.2-2.3c0-1.3,0.9-2.1,2.2-2.1C398.3,298.1,399.2,298.9,399.2,300.2z"/>
	<path class="st0" d="M415.2,309.3c-0.8-0.4-1.5-0.6-2.2-0.6c-3.3,0-5.7,2.2-5.7,7.3c0,5.1,2.6,7.5,6,7.5c1.4,0,3.5-0.5,4.8-0.9
		c0,0.6-0.2,1.6-0.5,2.2c-1.3,0.7-3.7,1.4-5.7,1.4c-5,0-8.2-4-8.2-9.4c0-6,3.8-10.3,9.5-10.3c2,0,3.8,0.5,5.1,1.4
		c0,0.4,0.1,1,0.1,1.4c0,1.1-0.2,2.3-0.5,3.3c-0.7,0-1.8-0.2-2.4-0.5V309.3z"/>
	<path class="st0" d="M428.4,325.5c0-0.6,0.3-1.5,0.5-2.1c0.7-0.2,2.2-0.4,3-0.5v-21.8c-0.9,0-2.2-0.2-2.9-0.3
		c-0.1-0.5-0.2-1.7-0.1-2.2h18.3v5.7c-0.7,0-1.5-0.1-2.2-0.3c-0.2-0.8-0.4-2.3-0.5-3.1h-9.2v9.8h7.3c0-0.5,0.2-1.6,0.4-2.1
		c0.5-0.2,1.5-0.3,2.2-0.3v7.1c-0.7,0.1-1.6,0-2.2-0.2c-0.2-0.7-0.3-1.6-0.3-2.2h-7.3v9.9h9.4c0.1-1,0.3-2.4,0.5-3.3
		c0.6-0.2,1.7-0.3,2.4-0.3v6H428.4z"/>
	<path class="st0" d="M456.9,321.6c-0.3,0.4-0.8,1-1.2,1.5c0.6,0,1.8,0.3,2.4,0.5c0.2,0.5,0.3,1.4,0.3,1.9h-8.6
		c0.1-0.6,0.3-1.3,0.5-1.8c0.5-0.3,1.7-0.7,2.4-0.8l5.4-6.9l-4.8-6.2c-0.8-0.2-1.5-0.4-2.1-0.7c-0.2-0.5-0.4-1.4-0.4-2h8.1
		c0,0.6-0.1,1.4-0.2,1.9c-0.4,0.2-1.2,0.4-1.9,0.5c0.5,0.4,1,1,1.5,1.5l2.4,3.1l2.4-3.2c0.3-0.4,0.7-1,1.2-1.4
		c-0.7-0.1-1.4-0.3-2-0.5c-0.2-0.6-0.3-1.3-0.3-1.9h7c0,0.5-0.2,1.5-0.4,2.1c-0.5,0.2-1.2,0.3-1.7,0.4l-4.8,6.4l5.6,7.2
		c0.5,0,1.7,0.2,2.2,0.4c0.2,0.5,0.4,1.4,0.4,2h-8.7c0.1-0.7,0.3-1.4,0.5-1.9c0.5-0.2,1.6-0.4,2.2-0.5c-0.5-0.5-1.3-1.2-1.7-1.8
		l-2.7-3.5L456.9,321.6z"/>
	<path class="st0" d="M483.1,309.3c-0.8-0.4-1.5-0.6-2.2-0.6c-3.3,0-5.7,2.2-5.7,7.3c0,5.1,2.6,7.5,6,7.5c1.4,0,3.5-0.5,4.8-0.9
		c0,0.6-0.2,1.6-0.5,2.2c-1.3,0.7-3.7,1.4-5.7,1.4c-5,0-8.2-4-8.2-9.4c0-6,3.8-10.3,9.5-10.3c2,0,3.8,0.5,5.1,1.4
		c0,0.4,0.1,1,0.1,1.4c0,1.1-0.2,2.3-0.5,3.3c-0.7,0-1.8-0.2-2.4-0.5V309.3z"/>
	<path class="st0" d="M491.4,316.7c0.1,4.1,2.7,6.7,6.3,6.7c1.7,0,4-0.5,5.4-1.1c0.1,0.6-0.2,1.6-0.5,2.2c-1.4,0.8-3.7,1.6-6.1,1.6
		c-5.5,0-8.7-4.1-8.7-9.5c0-5.7,3.5-10.2,8.9-10.2c4.6,0,6.6,3.4,6.6,8.2c0,0.7,0,1.4-0.1,2.1H491.4z M499.9,314.5
		c0.3-2.7-0.5-5.9-3.8-5.9c-2.7,0-4.5,2.4-4.8,5.9H499.9z"/>
	<path class="st0" d="M505.5,299.8c0-0.7,0.3-1.5,0.7-2.1c0.9-0.3,2.2-0.5,3.5-0.5c0.7,0,1.4,0.1,2,0.2v25.7c1,0.1,2.3,0.3,3.1,0.5
		c0.1,0.3,0.1,0.8,0.1,1.2c0,0.2,0,0.4,0,0.7h-9.6c0.1-0.6,0.3-1.2,0.5-1.7c0.6-0.3,1.7-0.6,2.5-0.7v-23.2H505.5z"/>
	<path class="st0" d="M516,299.8c0-0.7,0.3-1.5,0.7-2.1c0.9-0.3,2.2-0.5,3.5-0.5c0.7,0,1.4,0.1,2,0.2v25.7c1,0.1,2.3,0.3,3.1,0.5
		c0.1,0.3,0.1,0.8,0.1,1.2c0,0.2,0,0.4,0,0.7h-9.6c0.1-0.6,0.3-1.2,0.5-1.7c0.6-0.3,1.7-0.6,2.5-0.7v-23.2H516z"/>
	<path class="st0" d="M531.6,316.7c0.1,4.1,2.7,6.7,6.3,6.7c1.7,0,4-0.5,5.4-1.1c0.1,0.6-0.2,1.6-0.5,2.2c-1.4,0.8-3.7,1.6-6.1,1.6
		c-5.5,0-8.7-4.1-8.7-9.5c0-5.7,3.5-10.2,8.9-10.2c4.6,0,6.6,3.4,6.6,8.2c0,0.7,0,1.4-0.1,2.1H531.6z M540.1,314.5
		c0.3-2.7-0.5-5.9-3.8-5.9c-2.7,0-4.5,2.4-4.8,5.9H540.1z"/>
	<path class="st0" d="M553,323.1c1,0.1,2.1,0.3,2.8,0.5c0.1,0.5,0.2,1.3,0.1,1.9h-9.3c0.1-0.6,0.3-1.2,0.5-1.7
		c0.6-0.3,1.7-0.6,2.5-0.7v-13.7h-2.8c0-0.7,0.3-1.5,0.7-2.1c0.8-0.3,2.1-0.5,3.2-0.5c0.7,0,1.3,0.1,1.8,0.2v2.8h0.4
		c0.7-1.3,2.7-3.3,6.2-3.3c3.1,0,5.8,1,5.8,7c0,3.3-0.1,6.4-0.2,9.7c1,0.1,2.4,0.3,3.1,0.5c0.1,0.3,0.1,0.8,0.1,1.2
		c0,0.2,0,0.4,0,0.7h-9.2c0.1-0.6,0.3-1.2,0.5-1.7c0.6-0.3,1.5-0.6,2.2-0.7V314c0-3-0.9-4.9-3.6-4.9c-2,0-4,1.4-4.8,2.5V323.1z"/>
	<path class="st0" d="M582,309.3c-0.8-0.4-1.5-0.6-2.2-0.6c-3.3,0-5.7,2.2-5.7,7.3c0,5.1,2.6,7.5,6,7.5c1.4,0,3.5-0.5,4.8-0.9
		c0,0.6-0.2,1.6-0.5,2.2c-1.3,0.7-3.7,1.4-5.7,1.4c-5,0-8.2-4-8.2-9.4c0-6,3.8-10.3,9.5-10.3c2,0,3.8,0.5,5.1,1.4
		c0,0.4,0.1,1,0.1,1.4c0,1.1-0.2,2.3-0.5,3.3c-0.7,0-1.8-0.2-2.4-0.5V309.3z"/>
	<path class="st0" d="M591.8,316.7c0.1,4.1,2.7,6.7,6.3,6.7c1.7,0,4-0.5,5.4-1.1c0.1,0.6-0.2,1.6-0.5,2.2c-1.4,0.8-3.7,1.6-6.1,1.6
		c-5.5,0-8.7-4.1-8.7-9.5c0-5.7,3.5-10.2,8.9-10.2c4.6,0,6.6,3.4,6.6,8.2c0,0.7,0,1.4-0.1,2.1H591.8z M600.3,314.5
		c0.3-2.7-0.5-5.9-3.8-5.9c-2.7,0-4.5,2.4-4.8,5.9H600.3z"/>
	<path class="st0" d="M613.4,323.4c0,1.7-1,2.6-2.4,2.6c-1.6,0-2.5-0.9-2.5-2.6c0-1.4,1-2.4,2.5-2.4
		C612.4,321,613.4,321.9,613.4,323.4z"/>
	<path class="st0" d="M625.3,325.5c0-0.6,0.3-1.5,0.5-2.1c0.7-0.2,2.2-0.4,3-0.5v-21.8c-0.9,0-2.2-0.2-2.9-0.3
		c-0.1-0.5-0.2-1.7-0.1-2.2h18.3v5.7c-0.7,0-1.5-0.1-2.2-0.3c-0.2-0.8-0.4-2.3-0.5-3.1h-9.2v9.8h7.3c0-0.5,0.2-1.6,0.4-2.1
		c0.5-0.2,1.5-0.3,2.2-0.3v7.1c-0.7,0.1-1.6,0-2.2-0.2c-0.2-0.7-0.3-1.6-0.3-2.2h-7.3v9.9h9.4c0.1-1,0.3-2.4,0.5-3.3
		c0.6-0.2,1.7-0.3,2.4-0.3v6H625.3z"/>
	<path class="st0" d="M653.7,321.6c-0.3,0.4-0.8,1-1.2,1.5c0.6,0,1.8,0.3,2.4,0.5c0.2,0.5,0.3,1.4,0.3,1.9h-8.6
		c0.1-0.6,0.3-1.3,0.5-1.8c0.5-0.3,1.7-0.7,2.4-0.8l5.4-6.9l-4.8-6.2c-0.8-0.2-1.5-0.4-2.1-0.7c-0.2-0.5-0.4-1.4-0.4-2h8.1
		c0,0.6-0.1,1.4-0.2,1.9c-0.4,0.2-1.2,0.4-1.9,0.5c0.5,0.4,1,1,1.5,1.5l2.4,3.1l2.4-3.2c0.3-0.4,0.7-1,1.2-1.4
		c-0.7-0.1-1.4-0.3-2-0.5c-0.2-0.6-0.3-1.3-0.3-1.9h7c0,0.5-0.2,1.5-0.4,2.1c-0.5,0.2-1.2,0.3-1.7,0.4l-4.8,6.4l5.6,7.2
		c0.5,0,1.7,0.2,2.2,0.4c0.2,0.5,0.4,1.4,0.4,2h-8.7c0.1-0.7,0.3-1.4,0.5-1.9c0.5-0.2,1.6-0.4,2.2-0.5c-0.5-0.5-1.3-1.2-1.7-1.8
		l-2.7-3.5L653.7,321.6z"/>
	<path class="st0" d="M678.4,309.3c-0.8-0.4-1.5-0.6-2.2-0.6c-3.3,0-5.7,2.2-5.7,7.3c0,5.1,2.6,7.5,6,7.5c1.4,0,3.5-0.5,4.8-0.9
		c0,0.6-0.2,1.6-0.5,2.2c-1.3,0.7-3.7,1.4-5.7,1.4c-5,0-8.2-4-8.2-9.4c0-6,3.8-10.3,9.5-10.3c2,0,3.8,0.5,5.1,1.4
		c0,0.4,0.1,1,0.1,1.4c0,1.1-0.2,2.3-0.5,3.3c-0.7,0-1.8-0.2-2.4-0.5V309.3z"/>
	<path class="st0" d="M686.7,316.7c0.1,4.1,2.7,6.7,6.3,6.7c1.7,0,4-0.5,5.4-1.1c0.1,0.6-0.2,1.6-0.5,2.2c-1.4,0.8-3.7,1.6-6.1,1.6
		c-5.5,0-8.7-4.1-8.7-9.5c0-5.7,3.5-10.2,8.9-10.2c4.6,0,6.6,3.4,6.6,8.2c0,0.7,0,1.4-0.1,2.1H686.7z M695.2,314.5
		c0.3-2.7-0.5-5.9-3.8-5.9c-2.7,0-4.5,2.4-4.8,5.9H695.2z"/>
	<path class="st0" d="M706.6,332c1,0.1,2.8,0.4,3.7,0.7c0.1,0.5,0.2,1.2,0.1,1.8h-10.1c0.1-0.6,0.3-1.2,0.5-1.7
		c0.6-0.3,1.7-0.6,2.5-0.7v-22.7h-2.9c0-0.7,0.3-1.5,0.7-2.1c0.9-0.3,2.1-0.5,3.2-0.5c0.7,0,1.3,0.1,1.8,0.2v2.5h0.4
		c1-1.5,2.4-3,5.7-3c3.4,0,7.3,2.3,7.3,9.3c0,6.2-3.9,10.4-9.5,10.4c-1.1,0-2.6-0.3-3.4-0.9V332z M706.6,323.3
		c0.9,0.3,2.1,0.5,3.2,0.5c4.3,0,6.2-3.1,6.2-7.5c0-4.6-2.1-7.3-5-7.3c-2.2,0-3.6,1.2-4.4,2.4V323.3z"/>
	<path class="st0" d="M724.7,302.4c0.6-0.3,1.8-0.6,2.6-0.6v5.3h5.6c0.1,0.4,0.2,1.6,0.1,2.2h-5.7V320c0,2.5,0.3,3.6,2.5,3.6
		c1.1,0,2.4-0.2,3.6-0.5c0,0.2,0,0.4,0,0.5c0,0.5-0.2,1.2-0.4,1.5c-1.5,0.7-3.2,1-4.8,1c-3,0-4.5-1.6-4.5-5.6c0-2.3,0-7.3,0.2-11.2
		h-2.7c0-0.5,0.2-1.5,0.5-2c0.6-0.3,1.5-0.5,2.2-0.7L724.7,302.4z"/>
	<path class="st0" d="M733.9,309.3c0-0.7,0.3-1.5,0.7-2.1c0.9-0.3,2.2-0.5,3.5-0.5c0.7,0,1.4,0.1,2,0.2v16.2c1,0.1,2.2,0.3,3.1,0.5
		c0.1,0.3,0.1,0.8,0.1,1.2c0,0.2,0,0.4,0,0.7h-9.5c0.1-0.6,0.3-1.2,0.5-1.7c0.6-0.3,1.7-0.6,2.5-0.7v-13.7H733.9z M740.7,300.2
		c0,1.5-0.9,2.3-2.2,2.3c-1.4,0-2.2-0.8-2.2-2.3c0-1.3,0.9-2.1,2.2-2.1S740.7,298.9,740.7,300.2z"/>
	<path class="st0" d="M761.9,316c0,6.5-3.4,10.1-8.8,10.1c-5.7,0-8.8-3.5-8.8-10.1c0-5.9,3.8-9.6,8.8-9.6
		C758.4,306.4,761.9,309.8,761.9,316z M753.1,323.8c3.6,0,5.3-3,5.3-7.8c0-4.1-2.1-7.3-5.3-7.3c-3.4,0-5.3,2.9-5.3,7.3
		C747.8,320.7,749.8,323.8,753.1,323.8z"/>
	<path class="st0" d="M770.7,323.1c1,0.1,2.1,0.3,2.8,0.5c0.1,0.5,0.2,1.3,0.1,1.9h-9.3c0.1-0.6,0.3-1.2,0.5-1.7
		c0.6-0.3,1.7-0.6,2.5-0.7v-13.7h-2.8c0-0.7,0.3-1.5,0.7-2.1c0.8-0.3,2.1-0.5,3.2-0.5c0.7,0,1.3,0.1,1.8,0.2v2.8h0.4
		c0.7-1.3,2.7-3.3,6.2-3.3c3.1,0,5.8,1,5.8,7c0,3.3-0.1,6.4-0.2,9.7c1,0.1,2.4,0.3,3.1,0.5c0.1,0.3,0.1,0.8,0.1,1.2
		c0,0.2,0,0.4,0,0.7h-9.2c0.1-0.6,0.3-1.2,0.5-1.7c0.6-0.3,1.5-0.6,2.2-0.7V314c0-3-0.9-4.9-3.6-4.9c-2,0-4,1.4-4.8,2.5V323.1z"/>
	<path class="st0" d="M797.3,323.2c-1,1.9-3.1,2.9-5.4,2.9c-2.8,0-5.5-1.6-5.5-5.2c0-4,3.4-6,7.2-6c1.2,0,2.6,0.2,3.6,0.7v-2.1
		c0-2.9-1.2-4.3-3.7-4.3c-1.7,0-4.3,1-5.7,1.9c-0.2-0.3-0.2-0.8-0.2-1.3c0-0.7,0.2-1.5,0.4-1.9c1.3-0.7,4.3-1.4,6.3-1.4
		c4.2,0,6.1,2.1,6.1,7.4v7.5c0,0.8,0.2,1.7,0.5,2c0.6,0,1.9-0.2,2.7-0.5c0,0.2,0,0.3,0,0.4c0,0.6-0.2,1.3-0.4,1.7
		c-0.9,0.5-2.9,1.1-4.2,1.1c-0.8-0.5-1.5-1.7-1.6-2.9H797.3z M797.2,317.3c-0.7-0.2-1.9-0.3-2.7-0.3c-3,0-4.7,1.4-4.7,3.4
		c0,2.1,1.7,3.1,3.5,3.1c1.5,0,3.1-0.7,3.9-1.9V317.3z"/>
	<path class="st0" d="M803.8,299.8c0-0.7,0.3-1.5,0.7-2.1c0.9-0.3,2.2-0.5,3.5-0.5c0.7,0,1.4,0.1,2,0.2v25.7c1,0.1,2.3,0.3,3.1,0.5
		c0.1,0.3,0.1,0.8,0.1,1.2c0,0.2,0,0.4,0,0.7h-9.6c0.1-0.6,0.3-1.2,0.5-1.7c0.6-0.3,1.7-0.6,2.5-0.7v-23.2H803.8z"/>
	<path class="st0" d="M840.8,301.2c-1.4-0.6-2.7-0.9-4.2-0.9c-5.1,0-9.3,3.8-9.3,11.3c0,7.9,3.8,11.6,9.3,11.6
		c2.2,0,5.3-0.7,7.2-1.4c0.1,0.7-0.2,1.9-0.4,2.4c-2,1-5.3,1.9-8.2,1.9c-6.9,0-11.6-5.8-11.6-13.6c0-9.3,6.1-14.8,13.4-14.8
		c2.9,0,5.2,0.5,7.2,1.5c0,2.1-0.2,4.8-0.5,6.4c-0.8,0-2.1-0.3-2.7-0.6V301.2z"/>
	<path class="st0" d="M856.7,323.2c-1,1.9-3.1,2.9-5.4,2.9c-2.8,0-5.5-1.6-5.5-5.2c0-4,3.4-6,7.2-6c1.2,0,2.6,0.2,3.6,0.7v-2.1
		c0-2.9-1.2-4.3-3.7-4.3c-1.7,0-4.3,1-5.7,1.9c-0.2-0.3-0.2-0.8-0.2-1.3c0-0.7,0.2-1.5,0.4-1.9c1.3-0.7,4.3-1.4,6.3-1.4
		c4.2,0,6.1,2.1,6.1,7.4v7.5c0,0.8,0.2,1.7,0.5,2c0.6,0,1.9-0.2,2.7-0.5c0,0.2,0,0.3,0,0.4c0,0.6-0.2,1.3-0.4,1.7
		c-0.9,0.5-2.9,1.1-4.2,1.1c-0.8-0.5-1.5-1.7-1.6-2.9H856.7z M856.6,317.3c-0.7-0.2-1.9-0.3-2.7-0.3c-3,0-4.7,1.4-4.7,3.4
		c0,2.1,1.7,3.1,3.5,3.1c1.5,0,3.1-0.7,3.9-1.9V317.3z"/>
	<path class="st0" d="M869.7,310.6c0.5-2.4,2.5-4.1,5-4.1c0.5,0,1.3,0.1,1.7,0.3c0.3,0.5,0.5,1.4,0.5,2.3c0,0.4,0,0.7-0.1,1
		c-0.7-0.4-1.7-0.7-2.6-0.7c-1.8,0-3.5,1-4.5,3.2V323c1.1,0.1,2.9,0.4,3.8,0.7c0.1,0.5,0.2,1.2,0.1,1.8h-10.3
		c0.1-0.6,0.3-1.2,0.5-1.7c0.6-0.3,1.7-0.6,2.5-0.7v-13.7h-2.8c0-0.7,0.3-1.5,0.7-2.1c0.9-0.3,2.1-0.5,3.2-0.5
		c0.7,0,1.3,0.1,1.8,0.2v3.7H869.7z"/>
	<path class="st0" d="M881.8,316.7c0.1,4.1,2.7,6.7,6.3,6.7c1.7,0,4-0.5,5.4-1.1c0.1,0.6-0.2,1.6-0.5,2.2c-1.4,0.8-3.7,1.6-6.1,1.6
		c-5.5,0-8.7-4.1-8.7-9.5c0-5.7,3.5-10.2,8.9-10.2c4.6,0,6.6,3.4,6.6,8.2c0,0.7,0,1.4-0.1,2.1H881.8z M890.3,314.5
		c0.3-2.7-0.5-5.9-3.8-5.9c-2.7,0-4.5,2.4-4.8,5.9H890.3z"/>
	<path class="st0" d="M903.4,323.4c0,1.7-1,2.6-2.4,2.6c-1.6,0-2.5-0.9-2.5-2.6c0-1.4,1-2.4,2.5-2.4
		C902.4,321,903.4,321.9,903.4,323.4z"/>
</g>
<g>
	<g>
		<path class="st1" d="M220.3,67h-6.6v-1.5h14.7V67h-6.6v17.5h-1.6V67z"/>
		<path class="st1" d="M236.4,65.5h1.6v8.4h10.8v-8.4h1.6v19h-1.6v-9.1H238v9.1h-1.6V65.5z"/>
		<path class="st1" d="M260.1,65.5H272v1.4h-10.3v7h9.8v1.5h-9.8V83h10.8l-0.4,1.5h-12V65.5z"/>
	</g>
	<g>
		<g>
			<path class="st2" d="M216.1,195h428.7c-3,3.3-6.5,6.1-10.7,8.6l-4.2,2.5l0,0.3H216.1l-5.7-5.7L216.1,195z"/>
			<path class="st2" d="M913.4,200.7l-5.7,5.7H668.1c3-3.5,5.6-7.3,7.7-11.4h231.9L913.4,200.7z"/>
		</g>
		<g>
			<path class="st0" d="M266.2,137.1c12.8,2.6,21.2,10.3,21.2,22.4c0,20.5-18.1,28.5-37.4,28.5c-13.1,0-28.2-0.3-39.6-0.7
				c0.1-2.1,1-5.5,1.7-7.4c2.3-0.7,7.7-1.5,10.7-1.8v-77.7c-3.2,0-6.9,0-10.2-0.4c-0.4-1.8-0.5-6.5-0.3-8.2
				c11.4-0.7,23.1-1.1,33.7-1.1c20.1,0,36.3,8.3,36.3,25c0,10.3-6.6,18.3-16.1,20.8V137.1z M235.5,133.4h12.9
				c13.5,0,21.3-4.7,21.3-17.3c0-11.1-10.7-17-25.2-17c-2.2,0-6.2,0-9.1,0.3V133.4z M235.5,178.9c4.1,0.4,8.7,0.5,12.8,0.5
				c16.2,0,26.1-5.6,26.1-18.8c0-12.9-10.9-18.8-25.4-18.8h-13.5V178.9z"/>
			<path class="st0" d="M357.6,148.5c0,26.2-13.6,41.2-34.3,41.2c-22.3,0-34.7-14.2-34.7-41.2c0-24.2,14.9-39,34.7-39
				C343.9,109.5,357.6,123.3,357.6,148.5z M323.3,182.4c15.7,0,23.5-12.9,23.5-33.9c0-18.4-9.3-31.8-23.5-31.8
				c-15.6,0-23.8,12.6-23.8,31.8C299.5,169.1,308.2,182.4,323.3,182.4z"/>
			<path class="st0" d="M403.2,162.3c1.9,3.4,5.6,12.1,6.5,15.9h0.8v-59.5c-2.5-0.1-6.3-0.4-8.2-0.8c-0.3-1.4-0.4-4.9-0.2-6.2h24.2
				c0.1,0.4,0.2,1.3,0.2,2.3c0,1.5-0.2,3-0.4,3.8c-2.1,0.4-5.2,0.8-7.8,0.9v69.5h-12.4l-31.9-59.6c-1.1-2-2.7-5.4-3.8-8h-0.8v59.8
				c3.1,0.2,6.9,0.5,9.5,1.1c0.4,1.3,0.5,4.7,0.3,6h-27.8c0.1-1.6,0.8-4.3,1.3-5.8c1.9-0.5,6-1.2,8.3-1.4v-61.7
				c-2.5-0.1-6.2-0.4-8.1-0.8c-0.3-1.4-0.4-4.9-0.2-6.2h23.1L403.2,162.3z"/>
			<path class="st0" d="M420.9,187.5c0.1-1.6,0.8-4.3,1.3-5.8c2-0.5,6.1-1.2,8.5-1.4v-61.7c-2.5-0.1-6.2-0.4-8.1-0.8
				c-0.3-1.4-0.4-4.8-0.2-6.2h51.8v16.1c-1.9,0-4.4-0.3-6.1-0.8c-0.5-2.2-1.2-6.5-1.3-8.6h-26v27.8h20.7c0.1-1.5,0.7-4.5,1.1-5.9
				c1.4-0.4,4.4-0.9,6.2-0.9v20.1c-1.9,0.2-4.6,0-6.3-0.4c-0.4-2-0.9-4.6-1-6.3h-20.7v28h26.5c0.2-2.8,0.8-6.9,1.3-9.4
				c1.6-0.4,4.8-0.8,6.8-0.8v17.1H420.9z"/>
			<path class="st0" d="M585.8,167.3c3.6,3.7,6.9,7.6,9.8,11.3c3.4,0.1,7.2,0.4,11.1,1.2c0.7,1.9,1.4,5.8,1.4,7.7h-20.5
				c-3-3.9-6.2-7.8-9.8-11.7c-7.8,8.4-18.1,14.4-33.1,14.4c-15.9,0-33.4-6.6-33.4-25.6c0-13.6,9.3-24.2,20.3-27.2v-0.7
				c-7.4-4.1-13.1-10.5-13.1-21.2c0-16.5,14.3-22.8,26.3-22.8c11,0,23.9,5.4,23.9,19.9c0,11.3-8.8,21-18.3,23.8v0.7
				c7.3,4.5,21.6,16.4,28.2,23.4c2.9-6.1,4.7-13.2,5.8-19.8c-2.3-0.1-6.2-0.7-8.2-1.1c-0.7-2.1-1.2-5.2-1.4-7.7h33.7
				c0,1.9-1,6.3-1.7,8.1c-2.5,0.3-7.3,0.5-10.4,0.7C594.6,149.6,591.1,159.1,585.8,167.3z M537.2,141.5
				c-7.4,3.9-12.8,10.6-12.8,20.6c0,14,9.9,19.2,21.9,19.2c11.4,0,19.4-5.1,25.2-12.1C561.2,158.8,548.8,148.9,537.2,141.5z
				 M556.6,113.6c0-10-6.7-13.1-12.6-13.1c-5,0-13.1,2.3-13.1,12.2c0,8.3,5.1,13.6,13.2,19.5C552.1,128.4,556.6,121,556.6,113.6z"/>
			<path class="st0" d="M687.8,92.1c0.1,0.5,0.3,1.9,0.3,2.9c0,1.7-0.3,3.7-0.5,4.8c-3,0.5-7.7,1-11.3,1.1v55.5
				c0,25.8-11.1,45.5-32.6,55.7c-1.4-1.2-3.4-4.5-3.7-6.6c16.9-10,23.6-25.7,23.6-46.5v-58.2c-3.8-0.1-9.5-0.5-12.4-1
				c-0.4-1.8-0.6-6-0.3-7.8H687.8z"/>
			<path class="st0" d="M751.3,148.5c0,26.2-13.6,41.2-34.3,41.2c-22.3,0-34.7-14.2-34.7-41.2c0-24.2,14.9-39,34.7-39
				C737.5,109.5,751.3,123.3,751.3,148.5z M716.9,182.4c15.7,0,23.5-12.9,23.5-33.9c0-18.4-9.3-31.8-23.5-31.8
				c-15.6,0-23.8,12.6-23.8,31.8C693.1,169.1,701.8,182.4,716.9,182.4z"/>
			<path class="st0" d="M748.4,187.5c0.1-1.6,0.8-4.3,1.3-5.8c2-0.5,6.1-1.2,8.5-1.4v-61.7c-2.5-0.1-6.2-0.4-8.1-0.8
				c-0.3-1.4-0.4-4.8-0.2-6.2h27.6c0.3,1.3,0.2,4.7-0.2,6.1c-2.5,0.4-6.1,0.8-9,0.9v61.8c3.2,0.2,7,0.5,9.7,1.1
				c0.3,1.2,0.4,2.7,0.4,4.3c0,0.7,0,1-0.1,1.7H748.4z"/>
			<path class="st0" d="M825.3,162.3c1.9,3.4,5.6,12.1,6.5,15.9h0.8v-59.5c-2.5-0.1-6.3-0.4-8.2-0.8c-0.3-1.4-0.4-4.9-0.2-6.2h24.2
				c0.1,0.4,0.2,1.3,0.2,2.3c0,1.5-0.2,3-0.4,3.8c-2.1,0.4-5.2,0.8-7.8,0.9v69.5h-12.4L796,128.6c-1.1-2-2.7-5.4-3.8-8h-0.8v59.8
				c3.1,0.2,6.9,0.5,9.5,1.1c0.4,1.3,0.5,4.7,0.3,6h-27.8c0.1-1.6,0.8-4.3,1.3-5.8c1.9-0.5,6-1.2,8.3-1.4v-61.7
				c-2.5-0.1-6.2-0.4-8.1-0.8c-0.3-1.4-0.4-4.9-0.2-6.2h23.1L825.3,162.3z"/>
			<path class="st0" d="M887.7,180.4c3.4,0.2,7.5,0.5,10.5,1.1c0.4,1.3,0.5,4.7,0.3,6H867c0.1-1.6,0.9-4.3,1.4-5.8
				c2.2-0.5,6.6-1.2,9.2-1.4v-62h-17.7c-0.2,2.5-1,7.3-1.4,9.3c-1.6,0.4-4.6,0.7-6.6,0.7v-16.6h61.4v17.1c-2.2,0-4.9-0.3-6.7-0.8
				c-0.5-2.4-1.2-6.9-1.4-9.6h-17.6V180.4z"/>
		</g>
	</g>
</g>
<g>
	<path class="st1" d="M414.9,252.9c-0.3,2.3-0.9,4.5-1.8,6.5c-0.9,2-2.1,3.7-3.7,5.2c-1.5,1.5-3.4,2.6-5.6,3.4
		c-2.2,0.8-4.8,1.3-7.7,1.3c-3.1,0-5.9-0.5-8.4-1.6c-2.5-1.1-4.7-2.6-6.5-4.7c-1.8-2.1-3.3-4.7-4.3-7.7c-1-3.1-1.5-6.6-1.5-10.6
		c0-4.1,0.6-7.6,1.7-10.7c1.1-3.1,2.6-5.7,4.5-7.8c1.9-2.1,4.1-3.7,6.5-4.8c2.5-1.1,5.1-1.6,8-1.6c2.9,0,5.3,0.4,7.4,1.1
		c2.1,0.8,3.8,1.8,5.3,3.2c1.4,1.4,2.6,3,3.5,4.8c0.9,1.9,1.6,3.9,2.1,6l-3.8,0.9c-0.5-1.9-1.1-3.7-1.8-5.2
		c-0.7-1.5-1.7-2.8-2.8-3.9c-1.1-1.1-2.5-1.9-4.1-2.4c-1.6-0.6-3.5-0.9-5.8-0.9c-2.6,0-4.9,0.5-7,1.6c-2,1.1-3.8,2.5-5.2,4.4
		c-1.4,1.9-2.5,4.1-3.2,6.7c-0.8,2.6-1.1,5.4-1.1,8.5c0,3.1,0.4,6,1.1,8.5c0.7,2.6,1.8,4.8,3.2,6.7c1.4,1.9,3.1,3.4,5.2,4.4
		c2.1,1,4.5,1.6,7.2,1.6c2.6,0,4.7-0.3,6.5-1c1.7-0.6,3.2-1.5,4.3-2.7c1.1-1.1,2-2.5,2.7-4.1c0.6-1.6,1.1-3.3,1.4-5.1H414.9z"/>
	<path class="st1" d="M449.7,220.8h29.6v3.6h-25.7v17.4H478v3.8h-24.3v18.8h26.8l-0.9,3.7h-29.8V220.8z"/>
	<path class="st1" d="M514.4,220.8h4.4l26.4,40.9v-40.9h4V268h-4.4l-26.5-41v41h-4V220.8z"/>
	<path class="st1" d="M597.9,224.5h-16.4v-3.7h36.7v3.7h-16.3V268h-4V224.5z"/>
	<path class="st1" d="M650.6,220.8h29.6v3.6h-25.7v17.4h24.3v3.8h-24.3v18.8h26.8l-0.9,3.7h-29.8V220.8z"/>
	<path class="st1" d="M715.3,220.8h14.8c3.4,0,6.2,0.4,8.4,1.1c2.2,0.7,3.9,1.7,5.2,2.9c1.3,1.2,2.1,2.6,2.6,4.1
		c0.5,1.5,0.7,3.1,0.7,4.7c0,3-0.7,5.6-2,7.7c-1.3,2.1-3.5,3.7-6.6,4.8l10.2,21.9h-4.7l-9.5-21c-0.7,0.1-1.5,0.2-2.3,0.2
		c-0.8,0.1-1.6,0.1-2.5,0.1h-10.2V268h-4V220.8z M730.6,243.8c2.4,0,4.4-0.2,5.9-0.7c1.6-0.5,2.8-1.1,3.7-2c0.9-0.9,1.6-1.9,2-3.2
		c0.4-1.2,0.6-2.6,0.6-4.2c0-1.5-0.2-2.9-0.6-4.1c-0.4-1.2-1.1-2.1-2.1-2.9c-1-0.8-2.3-1.4-4-1.8c-1.7-0.4-3.7-0.6-6.2-0.6h-10.6
		v19.4H730.6z"/>
</g>
</svg>
